G04 #@! TF.FileFunction,Legend,Top*
%FSLAX46Y46*%
G04 Gerber Fmt 4.6, Leading zero omitted, Abs format (unit mm)*
G04 Created by KiCad (PCBNEW 4.0.6) date 08/09/17 12:21:06*
%MOMM*%
%LPD*%
G01*
G04 APERTURE LIST*
%ADD10C,0.100000*%
%ADD11C,0.500000*%
%ADD12C,0.300000*%
%ADD13C,0.200000*%
%ADD14C,0.250000*%
%ADD15C,0.125000*%
%ADD16C,0.010000*%
%ADD17C,0.120000*%
%ADD18C,0.150000*%
%ADD19C,0.152400*%
G04 APERTURE END LIST*
D10*
D11*
X159258000Y-72390000D02*
X159258000Y-73914000D01*
X161798000Y-72390000D02*
X161798000Y-73914000D01*
X164338000Y-72644000D02*
X164338000Y-73914000D01*
X166878000Y-72390000D02*
X166878000Y-73914000D01*
X169418000Y-72390000D02*
X169418000Y-73914000D01*
X171958000Y-72390000D02*
X171958000Y-73914000D01*
X174498000Y-72390000D02*
X174498000Y-73914000D01*
X174498000Y-78486000D02*
X174498000Y-77216000D01*
X171958000Y-78486000D02*
X171958000Y-77216000D01*
X169418000Y-78486000D02*
X169418000Y-77216000D01*
X166878000Y-78486000D02*
X166878000Y-77216000D01*
X164338000Y-78232000D02*
X164338000Y-77216000D01*
X161798000Y-78486000D02*
X161798000Y-77216000D01*
X159258000Y-78740000D02*
X159258000Y-77216000D01*
X156718000Y-78486000D02*
X156718000Y-77216000D01*
X156718000Y-72390000D02*
X156718000Y-73914000D01*
X152654000Y-78740000D02*
X152654000Y-77216000D01*
X152654000Y-72390000D02*
X152654000Y-73914000D01*
X150114000Y-72390000D02*
X150114000Y-73914000D01*
X150114000Y-78486000D02*
X150114000Y-77216000D01*
X147574000Y-78740000D02*
X147574000Y-77216000D01*
X147574000Y-72644000D02*
X147574000Y-73914000D01*
X145034000Y-72390000D02*
X145034000Y-73914000D01*
X145034000Y-78740000D02*
X145034000Y-77216000D01*
X142494000Y-78486000D02*
X142494000Y-77216000D01*
X139954000Y-78486000D02*
X139954000Y-77216000D01*
X142494000Y-72390000D02*
X142494000Y-73914000D01*
X139954000Y-72644000D02*
X139954000Y-73914000D01*
X137414000Y-72644000D02*
X137414000Y-73914000D01*
X132334000Y-72390000D02*
X132334000Y-73914000D01*
X134874000Y-72390000D02*
X134874000Y-73914000D01*
X137414000Y-78740000D02*
X137414000Y-77216000D01*
X134874000Y-78740000D02*
X134874000Y-77216000D01*
X132334000Y-78486000D02*
X132334000Y-77216000D01*
X129794000Y-78486000D02*
X129794000Y-77216000D01*
X129794000Y-72390000D02*
X129794000Y-73914000D01*
X161798000Y-121158000D02*
X161798000Y-122174000D01*
X164338000Y-121158000D02*
X164338000Y-122174000D01*
X166878000Y-121158000D02*
X166878000Y-122174000D01*
X169418000Y-121920000D02*
X169418000Y-122174000D01*
X169418000Y-120904000D02*
X169418000Y-121920000D01*
X171958000Y-120904000D02*
X171958000Y-122174000D01*
X174498000Y-121158000D02*
X174498000Y-122174000D01*
X174498000Y-126746000D02*
X174498000Y-125476000D01*
X171958000Y-126492000D02*
X171958000Y-125476000D01*
X169418000Y-126746000D02*
X169418000Y-125476000D01*
X166878000Y-126746000D02*
X166878000Y-125476000D01*
X164338000Y-126492000D02*
X164338000Y-125476000D01*
X161798000Y-126492000D02*
X161798000Y-125476000D01*
X154178000Y-126492000D02*
X154178000Y-125476000D01*
X151638000Y-126746000D02*
X151638000Y-125476000D01*
X149098000Y-126746000D02*
X149098000Y-125476000D01*
X146558000Y-126492000D02*
X146558000Y-125476000D01*
X144018000Y-126746000D02*
X144018000Y-125476000D01*
X141478000Y-126492000D02*
X141478000Y-125476000D01*
X138938000Y-126492000D02*
X138938000Y-125476000D01*
X138938000Y-120904000D02*
X138938000Y-122174000D01*
X141478000Y-120904000D02*
X141478000Y-122174000D01*
X144018000Y-120904000D02*
X144018000Y-122174000D01*
X146558000Y-121158000D02*
X146558000Y-122174000D01*
X149098000Y-121158000D02*
X149098000Y-122174000D01*
X151638000Y-120904000D02*
X151638000Y-122174000D01*
X154178000Y-121158000D02*
X154178000Y-122174000D01*
X156718000Y-120904000D02*
X156718000Y-122174000D01*
X156718000Y-126746000D02*
X156718000Y-125476000D01*
X165800000Y-102500000D02*
X165800000Y-112800000D01*
X150900000Y-115400000D02*
X133000000Y-115400000D01*
X173800000Y-115400000D02*
X153400000Y-115400000D01*
X173500000Y-102600000D02*
X173500000Y-112700000D01*
X171000000Y-102500000D02*
X171000000Y-112700000D01*
X168400000Y-102500000D02*
X168400000Y-112700000D01*
X163300000Y-102500000D02*
X163300000Y-112700000D01*
X160800000Y-102600000D02*
X160800000Y-112800000D01*
X158300000Y-102500000D02*
X158300000Y-112800000D01*
X155700000Y-102500000D02*
X155700000Y-112800000D01*
X153200000Y-102500000D02*
X153200000Y-112800000D01*
X150600000Y-102500000D02*
X150600000Y-112800000D01*
X148100000Y-102500000D02*
X148100000Y-112700000D01*
X145500000Y-102500000D02*
X145500000Y-112800000D01*
X143000000Y-102500000D02*
X143000000Y-112700000D01*
X140400000Y-102500000D02*
X140400000Y-112700000D01*
X137900000Y-102400000D02*
X137900000Y-112700000D01*
X135400000Y-102500000D02*
X135400000Y-112700000D01*
X132800000Y-102600000D02*
X132800000Y-112600000D01*
X130300000Y-102500000D02*
X130300000Y-112700000D01*
X127800000Y-102500000D02*
X127800000Y-112700000D01*
X125200000Y-102500000D02*
X125200000Y-112700000D01*
X122700000Y-102400000D02*
X122700000Y-112700000D01*
X120100000Y-102500000D02*
X120100000Y-112700000D01*
X117600000Y-102600000D02*
X117600000Y-112700000D01*
X115000000Y-102500000D02*
X115000000Y-112800000D01*
X143000000Y-99900000D02*
X115100000Y-99900000D01*
X143000000Y-97400000D02*
X115000000Y-97400000D01*
X173400000Y-97400000D02*
X145500000Y-97400000D01*
X173400000Y-99900000D02*
X145500000Y-99900000D01*
X143000000Y-87200000D02*
X143000000Y-94900000D01*
X115100000Y-87300000D02*
X115100000Y-94900000D01*
X117600000Y-87200000D02*
X117600000Y-94900000D01*
X120100000Y-87200000D02*
X120100000Y-94900000D01*
X122600000Y-87200000D02*
X122600000Y-94900000D01*
X125200000Y-87200000D02*
X125200000Y-94900000D01*
X127700000Y-87200000D02*
X127700000Y-94900000D01*
X130300000Y-87200000D02*
X130300000Y-94900000D01*
X132800000Y-87200000D02*
X132800000Y-94900000D01*
X135400000Y-87200000D02*
X135400000Y-94900000D01*
X137900000Y-87200000D02*
X137900000Y-94900000D01*
X140400000Y-87400000D02*
X140400000Y-95100000D01*
X145500000Y-87300000D02*
X145500000Y-95100000D01*
X148100000Y-87100000D02*
X148100000Y-95100000D01*
X150600000Y-87200000D02*
X150600000Y-94900000D01*
X153100000Y-87200000D02*
X153100000Y-95100000D01*
X155700000Y-87300000D02*
X155700000Y-95000000D01*
X132800000Y-118000000D02*
X151000000Y-118000000D01*
X173700000Y-118000000D02*
X153300000Y-118000000D01*
X158200000Y-87300000D02*
X158200000Y-94900000D01*
X160800000Y-87200000D02*
X160800000Y-95000000D01*
X163300000Y-87200000D02*
X163300000Y-94900000D01*
X165900000Y-87200000D02*
X165900000Y-95100000D01*
X168400000Y-87200000D02*
X168400000Y-95100000D01*
X170900000Y-87300000D02*
X170900000Y-95100000D01*
X173500000Y-87100000D02*
X173500000Y-95000000D01*
X145400000Y-84800000D02*
X173500000Y-84800000D01*
X143000000Y-84600000D02*
X115000000Y-84600000D01*
X145500000Y-82200000D02*
X173500000Y-82200000D01*
X115100000Y-82200000D02*
X143100000Y-82200000D01*
D12*
X115228572Y-76321429D02*
X115300001Y-76250000D01*
X115442858Y-76178571D01*
X115800001Y-76178571D01*
X115942858Y-76250000D01*
X116014287Y-76321429D01*
X116085715Y-76464286D01*
X116085715Y-76607143D01*
X116014287Y-76821429D01*
X115157144Y-77678571D01*
X116085715Y-77678571D01*
X117014286Y-76178571D02*
X117157143Y-76178571D01*
X117300000Y-76250000D01*
X117371429Y-76321429D01*
X117442858Y-76464286D01*
X117514286Y-76750000D01*
X117514286Y-77107143D01*
X117442858Y-77392857D01*
X117371429Y-77535714D01*
X117300000Y-77607143D01*
X117157143Y-77678571D01*
X117014286Y-77678571D01*
X116871429Y-77607143D01*
X116800000Y-77535714D01*
X116728572Y-77392857D01*
X116657143Y-77107143D01*
X116657143Y-76750000D01*
X116728572Y-76464286D01*
X116800000Y-76321429D01*
X116871429Y-76250000D01*
X117014286Y-76178571D01*
X118942857Y-77678571D02*
X118085714Y-77678571D01*
X118514286Y-77678571D02*
X118514286Y-76178571D01*
X118371429Y-76392857D01*
X118228571Y-76535714D01*
X118085714Y-76607143D01*
X119442857Y-76178571D02*
X120442857Y-76178571D01*
X119800000Y-77678571D01*
D13*
X119774987Y-117100305D02*
X119508320Y-116719352D01*
X119317844Y-117100305D02*
X119317844Y-116300305D01*
X119622606Y-116300305D01*
X119698797Y-116338400D01*
X119736892Y-116376495D01*
X119774987Y-116452686D01*
X119774987Y-116566971D01*
X119736892Y-116643162D01*
X119698797Y-116681257D01*
X119622606Y-116719352D01*
X119317844Y-116719352D01*
X120041654Y-116300305D02*
X120536892Y-116300305D01*
X120270225Y-116605067D01*
X120384511Y-116605067D01*
X120460701Y-116643162D01*
X120498797Y-116681257D01*
X120536892Y-116757448D01*
X120536892Y-116947924D01*
X120498797Y-117024114D01*
X120460701Y-117062210D01*
X120384511Y-117100305D01*
X120155939Y-117100305D01*
X120079749Y-117062210D01*
X120041654Y-117024114D01*
D14*
X111978179Y-123785334D02*
X112454370Y-123452000D01*
X111978179Y-123213905D02*
X112978179Y-123213905D01*
X112978179Y-123594858D01*
X112930560Y-123690096D01*
X112882941Y-123737715D01*
X112787703Y-123785334D01*
X112644846Y-123785334D01*
X112549608Y-123737715D01*
X112501989Y-123690096D01*
X112454370Y-123594858D01*
X112454370Y-123213905D01*
X112882941Y-124166286D02*
X112930560Y-124213905D01*
X112978179Y-124309143D01*
X112978179Y-124547239D01*
X112930560Y-124642477D01*
X112882941Y-124690096D01*
X112787703Y-124737715D01*
X112692465Y-124737715D01*
X112549608Y-124690096D01*
X111978179Y-124118667D01*
X111978179Y-124737715D01*
X123571261Y-122899466D02*
X123095070Y-123232800D01*
X123571261Y-123470895D02*
X122571261Y-123470895D01*
X122571261Y-123089942D01*
X122618880Y-122994704D01*
X122666499Y-122947085D01*
X122761737Y-122899466D01*
X122904594Y-122899466D01*
X122999832Y-122947085D01*
X123047451Y-122994704D01*
X123095070Y-123089942D01*
X123095070Y-123470895D01*
X123571261Y-121947085D02*
X123571261Y-122518514D01*
X123571261Y-122232800D02*
X122571261Y-122232800D01*
X122714118Y-122328038D01*
X122809356Y-122423276D01*
X122856975Y-122518514D01*
D13*
X113557095Y-118662467D02*
X113938048Y-118395800D01*
X113557095Y-118205324D02*
X114357095Y-118205324D01*
X114357095Y-118510086D01*
X114319000Y-118586277D01*
X114280905Y-118624372D01*
X114204714Y-118662467D01*
X114090429Y-118662467D01*
X114014238Y-118624372D01*
X113976143Y-118586277D01*
X113938048Y-118510086D01*
X113938048Y-118205324D01*
X114357095Y-118929134D02*
X113557095Y-119462467D01*
X114357095Y-119462467D02*
X113557095Y-118929134D01*
X113595195Y-120434200D02*
X114395195Y-120434200D01*
X114395195Y-120967533D02*
X114395195Y-121119914D01*
X114357100Y-121196105D01*
X114280910Y-121272295D01*
X114128529Y-121310390D01*
X113861862Y-121310390D01*
X113709481Y-121272295D01*
X113633290Y-121196105D01*
X113595195Y-121119914D01*
X113595195Y-120967533D01*
X113633290Y-120891343D01*
X113709481Y-120815152D01*
X113861862Y-120777057D01*
X114128529Y-120777057D01*
X114280910Y-120815152D01*
X114357100Y-120891343D01*
X114395195Y-120967533D01*
X114395195Y-121805628D02*
X114395195Y-121881819D01*
X114357100Y-121958009D01*
X114319005Y-121996104D01*
X114242814Y-122034200D01*
X114090433Y-122072295D01*
X113899957Y-122072295D01*
X113747576Y-122034200D01*
X113671386Y-121996104D01*
X113633290Y-121958009D01*
X113595195Y-121881819D01*
X113595195Y-121805628D01*
X113633290Y-121729438D01*
X113671386Y-121691342D01*
X113747576Y-121653247D01*
X113899957Y-121615152D01*
X114090433Y-121615152D01*
X114242814Y-121653247D01*
X114319005Y-121691342D01*
X114357100Y-121729438D01*
X114395195Y-121805628D01*
X113636095Y-123065000D02*
X114436095Y-123065000D01*
X114436095Y-123598333D02*
X114436095Y-123750714D01*
X114398000Y-123826905D01*
X114321810Y-123903095D01*
X114169429Y-123941190D01*
X113902762Y-123941190D01*
X113750381Y-123903095D01*
X113674190Y-123826905D01*
X113636095Y-123750714D01*
X113636095Y-123598333D01*
X113674190Y-123522143D01*
X113750381Y-123445952D01*
X113902762Y-123407857D01*
X114169429Y-123407857D01*
X114321810Y-123445952D01*
X114398000Y-123522143D01*
X114436095Y-123598333D01*
X114359905Y-124245952D02*
X114398000Y-124284047D01*
X114436095Y-124360238D01*
X114436095Y-124550714D01*
X114398000Y-124626904D01*
X114359905Y-124665000D01*
X114283714Y-124703095D01*
X114207524Y-124703095D01*
X114093238Y-124665000D01*
X113636095Y-124207857D01*
X113636095Y-124703095D01*
X114395200Y-126034877D02*
X114433295Y-125958686D01*
X114433295Y-125844401D01*
X114395200Y-125730115D01*
X114319010Y-125653924D01*
X114242819Y-125615829D01*
X114090438Y-125577734D01*
X113976152Y-125577734D01*
X113823771Y-125615829D01*
X113747581Y-125653924D01*
X113671390Y-125730115D01*
X113633295Y-125844401D01*
X113633295Y-125920591D01*
X113671390Y-126034877D01*
X113709486Y-126072972D01*
X113976152Y-126072972D01*
X113976152Y-125920591D01*
X113633295Y-126415829D02*
X114433295Y-126415829D01*
X113633295Y-126872972D01*
X114433295Y-126872972D01*
X113633295Y-127253924D02*
X114433295Y-127253924D01*
X114433295Y-127444400D01*
X114395200Y-127558686D01*
X114319010Y-127634877D01*
X114242819Y-127672972D01*
X114090438Y-127711067D01*
X113976152Y-127711067D01*
X113823771Y-127672972D01*
X113747581Y-127634877D01*
X113671390Y-127558686D01*
X113633295Y-127444400D01*
X113633295Y-127253924D01*
X121438095Y-117933333D02*
X120638095Y-118200000D01*
X121438095Y-118466667D01*
X120638095Y-118733333D02*
X121438095Y-118733333D01*
X121438095Y-118923809D01*
X121400000Y-119038095D01*
X121323810Y-119114286D01*
X121247619Y-119152381D01*
X121095238Y-119190476D01*
X120980952Y-119190476D01*
X120828571Y-119152381D01*
X120752381Y-119114286D01*
X120676190Y-119038095D01*
X120638095Y-118923809D01*
X120638095Y-118733333D01*
X120638095Y-119533333D02*
X121438095Y-119533333D01*
X121438095Y-119723809D01*
X121400000Y-119838095D01*
X121323810Y-119914286D01*
X121247619Y-119952381D01*
X121095238Y-119990476D01*
X120980952Y-119990476D01*
X120828571Y-119952381D01*
X120752381Y-119914286D01*
X120676190Y-119838095D01*
X120638095Y-119723809D01*
X120638095Y-119533333D01*
X120638095Y-121061905D02*
X121019048Y-120795238D01*
X120638095Y-120604762D02*
X121438095Y-120604762D01*
X121438095Y-120909524D01*
X121400000Y-120985715D01*
X121361905Y-121023810D01*
X121285714Y-121061905D01*
X121171429Y-121061905D01*
X121095238Y-121023810D01*
X121057143Y-120985715D01*
X121019048Y-120909524D01*
X121019048Y-120604762D01*
X120676190Y-121366667D02*
X120638095Y-121480953D01*
X120638095Y-121671429D01*
X120676190Y-121747619D01*
X120714286Y-121785715D01*
X120790476Y-121823810D01*
X120866667Y-121823810D01*
X120942857Y-121785715D01*
X120980952Y-121747619D01*
X121019048Y-121671429D01*
X121057143Y-121519048D01*
X121095238Y-121442857D01*
X121133333Y-121404762D01*
X121209524Y-121366667D01*
X121285714Y-121366667D01*
X121361905Y-121404762D01*
X121400000Y-121442857D01*
X121438095Y-121519048D01*
X121438095Y-121709524D01*
X121400000Y-121823810D01*
X121438095Y-122052381D02*
X121438095Y-122509524D01*
X120638095Y-122280953D02*
X121438095Y-122280953D01*
D15*
X120671857Y-123543714D02*
X120640905Y-123512762D01*
X120609952Y-123419905D01*
X120609952Y-123358000D01*
X120640905Y-123265143D01*
X120702810Y-123203238D01*
X120764714Y-123172286D01*
X120888524Y-123141334D01*
X120981381Y-123141334D01*
X121105190Y-123172286D01*
X121167095Y-123203238D01*
X121229000Y-123265143D01*
X121259952Y-123358000D01*
X121259952Y-123419905D01*
X121229000Y-123512762D01*
X121198048Y-123543714D01*
X120609952Y-123822286D02*
X121259952Y-123822286D01*
X120950429Y-123822286D02*
X120950429Y-124193714D01*
X120609952Y-124193714D02*
X121259952Y-124193714D01*
X120609952Y-124503238D02*
X121259952Y-124503238D01*
X121259952Y-124750857D01*
X121229000Y-124812762D01*
X121198048Y-124843714D01*
X121136143Y-124874666D01*
X121043286Y-124874666D01*
X120981381Y-124843714D01*
X120950429Y-124812762D01*
X120919476Y-124750857D01*
X120919476Y-124503238D01*
X120609952Y-125153238D02*
X121259952Y-125153238D01*
X121259952Y-125308000D01*
X121229000Y-125400857D01*
X121167095Y-125462762D01*
X121105190Y-125493714D01*
X120981381Y-125524666D01*
X120888524Y-125524666D01*
X120764714Y-125493714D01*
X120702810Y-125462762D01*
X120640905Y-125400857D01*
X120609952Y-125308000D01*
X120609952Y-125153238D01*
D13*
X121342095Y-126263476D02*
X121342095Y-126720619D01*
X120542095Y-126492048D02*
X121342095Y-126492048D01*
X121342095Y-126911096D02*
X120542095Y-127444429D01*
X121342095Y-127444429D02*
X120542095Y-126911096D01*
X130746381Y-70415190D02*
X130632095Y-70377095D01*
X130441619Y-70377095D01*
X130365429Y-70415190D01*
X130327333Y-70453286D01*
X130289238Y-70529476D01*
X130289238Y-70605667D01*
X130327333Y-70681857D01*
X130365429Y-70719952D01*
X130441619Y-70758048D01*
X130594000Y-70796143D01*
X130670191Y-70834238D01*
X130708286Y-70872333D01*
X130746381Y-70948524D01*
X130746381Y-71024714D01*
X130708286Y-71100905D01*
X130670191Y-71139000D01*
X130594000Y-71177095D01*
X130403524Y-71177095D01*
X130289238Y-71139000D01*
X129489238Y-70453286D02*
X129527333Y-70415190D01*
X129641619Y-70377095D01*
X129717809Y-70377095D01*
X129832095Y-70415190D01*
X129908286Y-70491381D01*
X129946381Y-70567571D01*
X129984476Y-70719952D01*
X129984476Y-70834238D01*
X129946381Y-70986619D01*
X129908286Y-71062810D01*
X129832095Y-71139000D01*
X129717809Y-71177095D01*
X129641619Y-71177095D01*
X129527333Y-71139000D01*
X129489238Y-71100905D01*
X128765428Y-70377095D02*
X129146381Y-70377095D01*
X129146381Y-71177095D01*
X133305428Y-70415190D02*
X133191142Y-70377095D01*
X133000666Y-70377095D01*
X132924476Y-70415190D01*
X132886380Y-70453286D01*
X132848285Y-70529476D01*
X132848285Y-70605667D01*
X132886380Y-70681857D01*
X132924476Y-70719952D01*
X133000666Y-70758048D01*
X133153047Y-70796143D01*
X133229238Y-70834238D01*
X133267333Y-70872333D01*
X133305428Y-70948524D01*
X133305428Y-71024714D01*
X133267333Y-71100905D01*
X133229238Y-71139000D01*
X133153047Y-71177095D01*
X132962571Y-71177095D01*
X132848285Y-71139000D01*
X132505428Y-70377095D02*
X132505428Y-71177095D01*
X132314952Y-71177095D01*
X132200666Y-71139000D01*
X132124475Y-71062810D01*
X132086380Y-70986619D01*
X132048285Y-70834238D01*
X132048285Y-70719952D01*
X132086380Y-70567571D01*
X132124475Y-70491381D01*
X132200666Y-70415190D01*
X132314952Y-70377095D01*
X132505428Y-70377095D01*
X131743523Y-70605667D02*
X131362571Y-70605667D01*
X131819714Y-70377095D02*
X131553047Y-71177095D01*
X131286380Y-70377095D01*
X135883523Y-70605667D02*
X135502571Y-70605667D01*
X135959714Y-70377095D02*
X135693047Y-71177095D01*
X135426380Y-70377095D01*
X135159714Y-70377095D02*
X135159714Y-70910429D01*
X135159714Y-70758048D02*
X135121619Y-70834238D01*
X135083523Y-70872333D01*
X135007333Y-70910429D01*
X134931142Y-70910429D01*
X134359714Y-70415190D02*
X134435904Y-70377095D01*
X134588285Y-70377095D01*
X134664476Y-70415190D01*
X134702571Y-70491381D01*
X134702571Y-70796143D01*
X134664476Y-70872333D01*
X134588285Y-70910429D01*
X134435904Y-70910429D01*
X134359714Y-70872333D01*
X134321619Y-70796143D01*
X134321619Y-70719952D01*
X134702571Y-70643762D01*
X134093048Y-70910429D02*
X133788286Y-70910429D01*
X133978762Y-70377095D02*
X133978762Y-71062810D01*
X133940667Y-71139000D01*
X133864476Y-71177095D01*
X133788286Y-71177095D01*
X138023523Y-71139000D02*
X138099714Y-71177095D01*
X138213999Y-71177095D01*
X138328285Y-71139000D01*
X138404476Y-71062810D01*
X138442571Y-70986619D01*
X138480666Y-70834238D01*
X138480666Y-70719952D01*
X138442571Y-70567571D01*
X138404476Y-70491381D01*
X138328285Y-70415190D01*
X138213999Y-70377095D01*
X138137809Y-70377095D01*
X138023523Y-70415190D01*
X137985428Y-70453286D01*
X137985428Y-70719952D01*
X138137809Y-70719952D01*
X137642571Y-70377095D02*
X137642571Y-71177095D01*
X137185428Y-70377095D01*
X137185428Y-71177095D01*
X136804476Y-70377095D02*
X136804476Y-71177095D01*
X136614000Y-71177095D01*
X136499714Y-71139000D01*
X136423523Y-71062810D01*
X136385428Y-70986619D01*
X136347333Y-70834238D01*
X136347333Y-70719952D01*
X136385428Y-70567571D01*
X136423523Y-70491381D01*
X136499714Y-70415190D01*
X136614000Y-70377095D01*
X136804476Y-70377095D01*
X140144476Y-70286619D02*
X140715905Y-70286619D01*
X140430191Y-70286619D02*
X140430191Y-71286619D01*
X140525429Y-71143762D01*
X140620667Y-71048524D01*
X140715905Y-71000905D01*
X139811143Y-71286619D02*
X139192095Y-71286619D01*
X139525429Y-70905667D01*
X139382571Y-70905667D01*
X139287333Y-70858048D01*
X139239714Y-70810429D01*
X139192095Y-70715190D01*
X139192095Y-70477095D01*
X139239714Y-70381857D01*
X139287333Y-70334238D01*
X139382571Y-70286619D01*
X139668286Y-70286619D01*
X139763524Y-70334238D01*
X139811143Y-70381857D01*
X142684476Y-70286619D02*
X143255905Y-70286619D01*
X142970191Y-70286619D02*
X142970191Y-71286619D01*
X143065429Y-71143762D01*
X143160667Y-71048524D01*
X143255905Y-71000905D01*
X142303524Y-71191381D02*
X142255905Y-71239000D01*
X142160667Y-71286619D01*
X141922571Y-71286619D01*
X141827333Y-71239000D01*
X141779714Y-71191381D01*
X141732095Y-71096143D01*
X141732095Y-71000905D01*
X141779714Y-70858048D01*
X142351143Y-70286619D01*
X141732095Y-70286619D01*
X145224476Y-70286619D02*
X145795905Y-70286619D01*
X145510191Y-70286619D02*
X145510191Y-71286619D01*
X145605429Y-71143762D01*
X145700667Y-71048524D01*
X145795905Y-71000905D01*
X144272095Y-70286619D02*
X144843524Y-70286619D01*
X144557810Y-70286619D02*
X144557810Y-71286619D01*
X144653048Y-71143762D01*
X144748286Y-71048524D01*
X144843524Y-71000905D01*
X147764476Y-70286619D02*
X148335905Y-70286619D01*
X148050191Y-70286619D02*
X148050191Y-71286619D01*
X148145429Y-71143762D01*
X148240667Y-71048524D01*
X148335905Y-71000905D01*
X147145429Y-71286619D02*
X147050190Y-71286619D01*
X146954952Y-71239000D01*
X146907333Y-71191381D01*
X146859714Y-71096143D01*
X146812095Y-70905667D01*
X146812095Y-70667571D01*
X146859714Y-70477095D01*
X146907333Y-70381857D01*
X146954952Y-70334238D01*
X147050190Y-70286619D01*
X147145429Y-70286619D01*
X147240667Y-70334238D01*
X147288286Y-70381857D01*
X147335905Y-70477095D01*
X147383524Y-70667571D01*
X147383524Y-70905667D01*
X147335905Y-71096143D01*
X147288286Y-71191381D01*
X147240667Y-71239000D01*
X147145429Y-71286619D01*
X150304476Y-70286619D02*
X150114000Y-70286619D01*
X150018761Y-70334238D01*
X149971142Y-70381857D01*
X149875904Y-70524714D01*
X149828285Y-70715190D01*
X149828285Y-71096143D01*
X149875904Y-71191381D01*
X149923523Y-71239000D01*
X150018761Y-71286619D01*
X150209238Y-71286619D01*
X150304476Y-71239000D01*
X150352095Y-71191381D01*
X150399714Y-71096143D01*
X150399714Y-70858048D01*
X150352095Y-70762810D01*
X150304476Y-70715190D01*
X150209238Y-70667571D01*
X150018761Y-70667571D01*
X149923523Y-70715190D01*
X149875904Y-70762810D01*
X149828285Y-70858048D01*
X152749238Y-70858048D02*
X152844476Y-70905667D01*
X152892095Y-70953286D01*
X152939714Y-71048524D01*
X152939714Y-71096143D01*
X152892095Y-71191381D01*
X152844476Y-71239000D01*
X152749238Y-71286619D01*
X152558761Y-71286619D01*
X152463523Y-71239000D01*
X152415904Y-71191381D01*
X152368285Y-71096143D01*
X152368285Y-71048524D01*
X152415904Y-70953286D01*
X152463523Y-70905667D01*
X152558761Y-70858048D01*
X152749238Y-70858048D01*
X152844476Y-70810429D01*
X152892095Y-70762810D01*
X152939714Y-70667571D01*
X152939714Y-70477095D01*
X152892095Y-70381857D01*
X152844476Y-70334238D01*
X152749238Y-70286619D01*
X152558761Y-70286619D01*
X152463523Y-70334238D01*
X152415904Y-70381857D01*
X152368285Y-70477095D01*
X152368285Y-70667571D01*
X152415904Y-70762810D01*
X152463523Y-70810429D01*
X152558761Y-70858048D01*
X157051333Y-71286619D02*
X156384666Y-71286619D01*
X156813238Y-70286619D01*
X159067523Y-71286619D02*
X159258000Y-71286619D01*
X159353238Y-71239000D01*
X159400857Y-71191381D01*
X159496095Y-71048524D01*
X159543714Y-70858048D01*
X159543714Y-70477095D01*
X159496095Y-70381857D01*
X159448476Y-70334238D01*
X159353238Y-70286619D01*
X159162761Y-70286619D01*
X159067523Y-70334238D01*
X159019904Y-70381857D01*
X158972285Y-70477095D01*
X158972285Y-70715190D01*
X159019904Y-70810429D01*
X159067523Y-70858048D01*
X159162761Y-70905667D01*
X159353238Y-70905667D01*
X159448476Y-70858048D01*
X159496095Y-70810429D01*
X159543714Y-70715190D01*
X161559904Y-71286619D02*
X162036095Y-71286619D01*
X162083714Y-70810429D01*
X162036095Y-70858048D01*
X161940857Y-70905667D01*
X161702761Y-70905667D01*
X161607523Y-70858048D01*
X161559904Y-70810429D01*
X161512285Y-70715190D01*
X161512285Y-70477095D01*
X161559904Y-70381857D01*
X161607523Y-70334238D01*
X161702761Y-70286619D01*
X161940857Y-70286619D01*
X162036095Y-70334238D01*
X162083714Y-70381857D01*
X164147523Y-70953286D02*
X164147523Y-70286619D01*
X164385619Y-71334238D02*
X164623714Y-70619952D01*
X164004666Y-70619952D01*
X167211333Y-71286619D02*
X166592285Y-71286619D01*
X166925619Y-70905667D01*
X166782761Y-70905667D01*
X166687523Y-70858048D01*
X166639904Y-70810429D01*
X166592285Y-70715190D01*
X166592285Y-70477095D01*
X166639904Y-70381857D01*
X166687523Y-70334238D01*
X166782761Y-70286619D01*
X167068476Y-70286619D01*
X167163714Y-70334238D01*
X167211333Y-70381857D01*
X169703714Y-71191381D02*
X169656095Y-71239000D01*
X169560857Y-71286619D01*
X169322761Y-71286619D01*
X169227523Y-71239000D01*
X169179904Y-71191381D01*
X169132285Y-71096143D01*
X169132285Y-71000905D01*
X169179904Y-70858048D01*
X169751333Y-70286619D01*
X169132285Y-70286619D01*
X171672285Y-70286619D02*
X172243714Y-70286619D01*
X171958000Y-70286619D02*
X171958000Y-71286619D01*
X172053238Y-71143762D01*
X172148476Y-71048524D01*
X172243714Y-71000905D01*
X174545619Y-71286619D02*
X174450380Y-71286619D01*
X174355142Y-71239000D01*
X174307523Y-71191381D01*
X174259904Y-71096143D01*
X174212285Y-70905667D01*
X174212285Y-70667571D01*
X174259904Y-70477095D01*
X174307523Y-70381857D01*
X174355142Y-70334238D01*
X174450380Y-70286619D01*
X174545619Y-70286619D01*
X174640857Y-70334238D01*
X174688476Y-70381857D01*
X174736095Y-70477095D01*
X174783714Y-70667571D01*
X174783714Y-70905667D01*
X174736095Y-71096143D01*
X174688476Y-71191381D01*
X174640857Y-71239000D01*
X174545619Y-71286619D01*
X141020857Y-128758905D02*
X140754190Y-128377952D01*
X140563714Y-128758905D02*
X140563714Y-127958905D01*
X140868476Y-127958905D01*
X140944667Y-127997000D01*
X140982762Y-128035095D01*
X141020857Y-128111286D01*
X141020857Y-128225571D01*
X140982762Y-128301762D01*
X140944667Y-128339857D01*
X140868476Y-128377952D01*
X140563714Y-128377952D01*
X141363714Y-128339857D02*
X141630381Y-128339857D01*
X141744667Y-128758905D02*
X141363714Y-128758905D01*
X141363714Y-127958905D01*
X141744667Y-127958905D01*
X142354191Y-128339857D02*
X142087524Y-128339857D01*
X142087524Y-128758905D02*
X142087524Y-127958905D01*
X142468477Y-127958905D01*
X143579905Y-128758905D02*
X143313238Y-128377952D01*
X143122762Y-128758905D02*
X143122762Y-127958905D01*
X143427524Y-127958905D01*
X143503715Y-127997000D01*
X143541810Y-128035095D01*
X143579905Y-128111286D01*
X143579905Y-128225571D01*
X143541810Y-128301762D01*
X143503715Y-128339857D01*
X143427524Y-128377952D01*
X143122762Y-128377952D01*
X143884667Y-128720810D02*
X143998953Y-128758905D01*
X144189429Y-128758905D01*
X144265619Y-128720810D01*
X144303715Y-128682714D01*
X144341810Y-128606524D01*
X144341810Y-128530333D01*
X144303715Y-128454143D01*
X144265619Y-128416048D01*
X144189429Y-128377952D01*
X144037048Y-128339857D01*
X143960857Y-128301762D01*
X143922762Y-128263667D01*
X143884667Y-128187476D01*
X143884667Y-128111286D01*
X143922762Y-128035095D01*
X143960857Y-127997000D01*
X144037048Y-127958905D01*
X144227524Y-127958905D01*
X144341810Y-127997000D01*
X144570381Y-127958905D02*
X145027524Y-127958905D01*
X144798953Y-128758905D02*
X144798953Y-127958905D01*
X145567524Y-127958905D02*
X146062762Y-127958905D01*
X145796095Y-128263667D01*
X145910381Y-128263667D01*
X145986571Y-128301762D01*
X146024667Y-128339857D01*
X146062762Y-128416048D01*
X146062762Y-128606524D01*
X146024667Y-128682714D01*
X145986571Y-128720810D01*
X145910381Y-128758905D01*
X145681809Y-128758905D01*
X145605619Y-128720810D01*
X145567524Y-128682714D01*
X146291333Y-127958905D02*
X146558000Y-128758905D01*
X146824667Y-127958905D01*
X147015143Y-127958905D02*
X147510381Y-127958905D01*
X147243714Y-128263667D01*
X147358000Y-128263667D01*
X147434190Y-128301762D01*
X147472286Y-128339857D01*
X147510381Y-128416048D01*
X147510381Y-128606524D01*
X147472286Y-128682714D01*
X147434190Y-128720810D01*
X147358000Y-128758905D01*
X147129428Y-128758905D01*
X147053238Y-128720810D01*
X147015143Y-128682714D01*
X148945620Y-127958905D02*
X148564667Y-127958905D01*
X148526572Y-128339857D01*
X148564667Y-128301762D01*
X148640858Y-128263667D01*
X148831334Y-128263667D01*
X148907524Y-128301762D01*
X148945620Y-128339857D01*
X148983715Y-128416048D01*
X148983715Y-128606524D01*
X148945620Y-128682714D01*
X148907524Y-128720810D01*
X148831334Y-128758905D01*
X148640858Y-128758905D01*
X148564667Y-128720810D01*
X148526572Y-128682714D01*
X149212286Y-127958905D02*
X149478953Y-128758905D01*
X149745620Y-127958905D01*
X151028477Y-127997000D02*
X150952286Y-127958905D01*
X150838001Y-127958905D01*
X150723715Y-127997000D01*
X150647524Y-128073190D01*
X150609429Y-128149381D01*
X150571334Y-128301762D01*
X150571334Y-128416048D01*
X150609429Y-128568429D01*
X150647524Y-128644619D01*
X150723715Y-128720810D01*
X150838001Y-128758905D01*
X150914191Y-128758905D01*
X151028477Y-128720810D01*
X151066572Y-128682714D01*
X151066572Y-128416048D01*
X150914191Y-128416048D01*
X151409429Y-128758905D02*
X151409429Y-127958905D01*
X151866572Y-128758905D01*
X151866572Y-127958905D01*
X152247524Y-128758905D02*
X152247524Y-127958905D01*
X152438000Y-127958905D01*
X152552286Y-127997000D01*
X152628477Y-128073190D01*
X152666572Y-128149381D01*
X152704667Y-128301762D01*
X152704667Y-128416048D01*
X152666572Y-128568429D01*
X152628477Y-128644619D01*
X152552286Y-128720810D01*
X152438000Y-128758905D01*
X152247524Y-128758905D01*
X153568477Y-127997000D02*
X153492286Y-127958905D01*
X153378001Y-127958905D01*
X153263715Y-127997000D01*
X153187524Y-128073190D01*
X153149429Y-128149381D01*
X153111334Y-128301762D01*
X153111334Y-128416048D01*
X153149429Y-128568429D01*
X153187524Y-128644619D01*
X153263715Y-128720810D01*
X153378001Y-128758905D01*
X153454191Y-128758905D01*
X153568477Y-128720810D01*
X153606572Y-128682714D01*
X153606572Y-128416048D01*
X153454191Y-128416048D01*
X153949429Y-128758905D02*
X153949429Y-127958905D01*
X154406572Y-128758905D01*
X154406572Y-127958905D01*
X154787524Y-128758905D02*
X154787524Y-127958905D01*
X154978000Y-127958905D01*
X155092286Y-127997000D01*
X155168477Y-128073190D01*
X155206572Y-128149381D01*
X155244667Y-128301762D01*
X155244667Y-128416048D01*
X155206572Y-128568429D01*
X155168477Y-128644619D01*
X155092286Y-128720810D01*
X154978000Y-128758905D01*
X154787524Y-128758905D01*
X155898952Y-127958905D02*
X156165619Y-128758905D01*
X156432286Y-127958905D01*
X156698952Y-128758905D02*
X156698952Y-128225571D01*
X156698952Y-127958905D02*
X156660857Y-127997000D01*
X156698952Y-128035095D01*
X156737047Y-127997000D01*
X156698952Y-127958905D01*
X156698952Y-128035095D01*
X157079904Y-128225571D02*
X157079904Y-128758905D01*
X157079904Y-128301762D02*
X157117999Y-128263667D01*
X157194190Y-128225571D01*
X157308476Y-128225571D01*
X157384666Y-128263667D01*
X157422761Y-128339857D01*
X157422761Y-128758905D01*
X161083714Y-128563667D02*
X161559905Y-128563667D01*
X160988476Y-128849381D02*
X161321809Y-127849381D01*
X161655143Y-128849381D01*
X162178952Y-127849381D02*
X162274191Y-127849381D01*
X162369429Y-127897000D01*
X162417048Y-127944619D01*
X162464667Y-128039857D01*
X162512286Y-128230333D01*
X162512286Y-128468429D01*
X162464667Y-128658905D01*
X162417048Y-128754143D01*
X162369429Y-128801762D01*
X162274191Y-128849381D01*
X162178952Y-128849381D01*
X162083714Y-128801762D01*
X162036095Y-128754143D01*
X161988476Y-128658905D01*
X161940857Y-128468429D01*
X161940857Y-128230333D01*
X161988476Y-128039857D01*
X162036095Y-127944619D01*
X162083714Y-127897000D01*
X162178952Y-127849381D01*
X163623714Y-128563667D02*
X164099905Y-128563667D01*
X163528476Y-128849381D02*
X163861809Y-127849381D01*
X164195143Y-128849381D01*
X165052286Y-128849381D02*
X164480857Y-128849381D01*
X164766571Y-128849381D02*
X164766571Y-127849381D01*
X164671333Y-127992238D01*
X164576095Y-128087476D01*
X164480857Y-128135095D01*
X166163714Y-128563667D02*
X166639905Y-128563667D01*
X166068476Y-128849381D02*
X166401809Y-127849381D01*
X166735143Y-128849381D01*
X167020857Y-127944619D02*
X167068476Y-127897000D01*
X167163714Y-127849381D01*
X167401810Y-127849381D01*
X167497048Y-127897000D01*
X167544667Y-127944619D01*
X167592286Y-128039857D01*
X167592286Y-128135095D01*
X167544667Y-128277952D01*
X166973238Y-128849381D01*
X167592286Y-128849381D01*
X168703714Y-128563667D02*
X169179905Y-128563667D01*
X168608476Y-128849381D02*
X168941809Y-127849381D01*
X169275143Y-128849381D01*
X169513238Y-127849381D02*
X170132286Y-127849381D01*
X169798952Y-128230333D01*
X169941810Y-128230333D01*
X170037048Y-128277952D01*
X170084667Y-128325571D01*
X170132286Y-128420810D01*
X170132286Y-128658905D01*
X170084667Y-128754143D01*
X170037048Y-128801762D01*
X169941810Y-128849381D01*
X169656095Y-128849381D01*
X169560857Y-128801762D01*
X169513238Y-128754143D01*
X171243714Y-128563667D02*
X171719905Y-128563667D01*
X171148476Y-128849381D02*
X171481809Y-127849381D01*
X171815143Y-128849381D01*
X172577048Y-128182714D02*
X172577048Y-128849381D01*
X172338952Y-127801762D02*
X172100857Y-128516048D01*
X172719905Y-128516048D01*
X173783714Y-128563667D02*
X174259905Y-128563667D01*
X173688476Y-128849381D02*
X174021809Y-127849381D01*
X174355143Y-128849381D01*
X175164667Y-127849381D02*
X174688476Y-127849381D01*
X174640857Y-128325571D01*
X174688476Y-128277952D01*
X174783714Y-128230333D01*
X175021810Y-128230333D01*
X175117048Y-128277952D01*
X175164667Y-128325571D01*
X175212286Y-128420810D01*
X175212286Y-128658905D01*
X175164667Y-128754143D01*
X175117048Y-128801762D01*
X175021810Y-128849381D01*
X174783714Y-128849381D01*
X174688476Y-128801762D01*
X174640857Y-128754143D01*
D16*
G36*
X116092281Y-70592114D02*
X116119434Y-70637176D01*
X116127051Y-70685722D01*
X116116010Y-70732293D01*
X116087190Y-70771435D01*
X116060463Y-70789740D01*
X116038400Y-70795114D01*
X115998411Y-70799319D01*
X115945652Y-70801947D01*
X115898248Y-70802637D01*
X115733192Y-70806544D01*
X115569043Y-70817860D01*
X115410613Y-70835975D01*
X115262711Y-70860282D01*
X115130148Y-70890172D01*
X115069682Y-70907467D01*
X114921050Y-70961880D01*
X114792652Y-71026768D01*
X114683710Y-71103034D01*
X114593447Y-71191576D01*
X114521084Y-71293296D01*
X114465844Y-71409094D01*
X114426949Y-71539869D01*
X114404587Y-71677350D01*
X114400474Y-71730615D01*
X114398242Y-71793277D01*
X114397758Y-71860691D01*
X114398890Y-71928215D01*
X114401503Y-71991205D01*
X114405466Y-72045018D01*
X114410646Y-72085010D01*
X114416857Y-72106453D01*
X114425884Y-72112231D01*
X114445453Y-72113271D01*
X114479236Y-72109310D01*
X114530907Y-72100083D01*
X114545688Y-72097192D01*
X114682825Y-72071703D01*
X114835858Y-72046132D01*
X115001294Y-72020882D01*
X115175642Y-71996355D01*
X115355411Y-71972955D01*
X115537108Y-71951083D01*
X115717242Y-71931143D01*
X115892321Y-71913537D01*
X116058853Y-71898668D01*
X116213347Y-71886938D01*
X116352311Y-71878751D01*
X116472254Y-71874509D01*
X116477266Y-71874415D01*
X116523376Y-71874052D01*
X116552925Y-71876207D01*
X116572436Y-71882720D01*
X116588429Y-71895427D01*
X116601380Y-71909391D01*
X116626622Y-71952175D01*
X116634819Y-72000168D01*
X116626750Y-72047068D01*
X116603191Y-72086570D01*
X116577027Y-72106918D01*
X116558684Y-72111483D01*
X116521689Y-72116771D01*
X116470449Y-72122285D01*
X116409370Y-72127531D01*
X116366915Y-72130533D01*
X115996852Y-72158323D01*
X115637008Y-72192917D01*
X115292438Y-72233806D01*
X115156273Y-72252340D01*
X115079598Y-72263530D01*
X114996418Y-72276252D01*
X114909814Y-72289977D01*
X114822866Y-72304177D01*
X114738654Y-72318322D01*
X114660260Y-72331884D01*
X114590764Y-72344334D01*
X114533247Y-72355142D01*
X114490789Y-72363779D01*
X114466471Y-72369716D01*
X114462016Y-72371562D01*
X114460423Y-72385310D01*
X114462118Y-72416505D01*
X114466711Y-72459800D01*
X114470538Y-72488273D01*
X114493815Y-72677553D01*
X114510581Y-72874759D01*
X114520840Y-73075724D01*
X114524597Y-73276284D01*
X114521857Y-73472274D01*
X114512623Y-73659529D01*
X114496901Y-73833884D01*
X114474696Y-73991173D01*
X114468832Y-74023652D01*
X114458165Y-74072332D01*
X114446340Y-74105131D01*
X114430211Y-74129175D01*
X114415938Y-74143475D01*
X114389412Y-74164220D01*
X114364596Y-74172197D01*
X114329838Y-74170943D01*
X114326607Y-74170587D01*
X114284383Y-74160979D01*
X114252360Y-74139641D01*
X114240239Y-74127079D01*
X114227391Y-74111973D01*
X114218370Y-74097384D01*
X114213146Y-74079807D01*
X114211689Y-74055737D01*
X114213969Y-74021669D01*
X114219956Y-73974099D01*
X114229620Y-73909522D01*
X114237915Y-73856410D01*
X114254986Y-73718979D01*
X114266389Y-73563752D01*
X114272187Y-73395300D01*
X114272441Y-73218195D01*
X114267212Y-73037009D01*
X114256563Y-72856313D01*
X114240555Y-72680680D01*
X114219858Y-72518758D01*
X114213522Y-72477103D01*
X114206458Y-72450202D01*
X114194421Y-72436138D01*
X114173164Y-72432990D01*
X114138442Y-72438842D01*
X114086006Y-72451773D01*
X114076773Y-72454099D01*
X113805769Y-72526487D01*
X113557147Y-72601889D01*
X113330979Y-72680271D01*
X113127336Y-72761602D01*
X112946292Y-72845850D01*
X112787919Y-72932981D01*
X112652289Y-73022963D01*
X112539476Y-73115764D01*
X112492514Y-73162292D01*
X112430844Y-73235324D01*
X112388899Y-73304045D01*
X112364820Y-73372347D01*
X112356747Y-73444121D01*
X112356732Y-73446546D01*
X112363131Y-73513875D01*
X112384014Y-73577926D01*
X112421262Y-73642350D01*
X112476754Y-73710800D01*
X112511523Y-73747266D01*
X112614425Y-73838187D01*
X112739334Y-73926426D01*
X112885301Y-74011758D01*
X113051372Y-74093953D01*
X113236596Y-74172786D01*
X113440022Y-74248029D01*
X113660697Y-74319455D01*
X113897669Y-74386837D01*
X114149988Y-74449947D01*
X114416700Y-74508559D01*
X114696855Y-74562445D01*
X114989500Y-74611378D01*
X115293684Y-74655131D01*
X115608456Y-74693477D01*
X115932862Y-74726189D01*
X116265952Y-74753039D01*
X116606773Y-74773800D01*
X116859227Y-74784955D01*
X116959801Y-74787972D01*
X117079156Y-74790346D01*
X117212991Y-74792079D01*
X117357004Y-74793172D01*
X117506893Y-74793626D01*
X117658358Y-74793444D01*
X117807098Y-74792625D01*
X117948811Y-74791171D01*
X118079196Y-74789084D01*
X118193951Y-74786364D01*
X118250454Y-74784542D01*
X118615487Y-74767182D01*
X118981759Y-74741748D01*
X119345084Y-74708696D01*
X119701276Y-74668484D01*
X120046148Y-74621566D01*
X120375516Y-74568401D01*
X120580476Y-74530481D01*
X120870870Y-74469711D01*
X121143011Y-74404418D01*
X121396368Y-74334806D01*
X121630412Y-74261078D01*
X121844614Y-74183437D01*
X122038445Y-74102088D01*
X122211373Y-74017235D01*
X122362871Y-73929080D01*
X122492409Y-73837829D01*
X122582944Y-73759812D01*
X122658663Y-73677223D01*
X122711492Y-73595740D01*
X122741576Y-73514858D01*
X122749060Y-73434069D01*
X122734090Y-73352865D01*
X122713663Y-73302228D01*
X122680978Y-73249130D01*
X122632519Y-73189013D01*
X122572606Y-73126238D01*
X122505554Y-73065169D01*
X122435682Y-73010169D01*
X122401045Y-72986313D01*
X122241310Y-72891404D01*
X122059643Y-72800693D01*
X121856857Y-72714391D01*
X121633763Y-72632713D01*
X121391173Y-72555869D01*
X121129901Y-72484074D01*
X120850759Y-72417540D01*
X120554559Y-72356479D01*
X120242113Y-72301105D01*
X119914234Y-72251630D01*
X119571734Y-72208266D01*
X119331187Y-72182408D01*
X119249637Y-72173915D01*
X119174972Y-72165505D01*
X119110492Y-72157601D01*
X119059498Y-72150625D01*
X119025290Y-72145000D01*
X119011696Y-72141504D01*
X118981832Y-72117301D01*
X118957087Y-72083405D01*
X118943916Y-72049280D01*
X118943182Y-72041075D01*
X118952345Y-71995291D01*
X118976244Y-71952693D01*
X119009490Y-71922304D01*
X119016233Y-71918742D01*
X119031099Y-71912975D01*
X119048853Y-71909367D01*
X119072998Y-71907980D01*
X119107041Y-71908877D01*
X119154488Y-71912120D01*
X119218843Y-71917771D01*
X119278000Y-71923403D01*
X119685658Y-71967677D01*
X120073784Y-72019652D01*
X120441961Y-72079251D01*
X120789773Y-72146394D01*
X121116803Y-72221002D01*
X121422635Y-72302998D01*
X121635172Y-72368422D01*
X121873168Y-72451459D01*
X122088515Y-72537814D01*
X122281189Y-72627470D01*
X122451164Y-72720409D01*
X122598417Y-72816612D01*
X122722923Y-72916062D01*
X122824656Y-73018740D01*
X122903594Y-73124630D01*
X122959710Y-73233711D01*
X122992981Y-73345967D01*
X122996521Y-73366373D01*
X123002243Y-73476573D01*
X122985147Y-73585188D01*
X122945468Y-73691984D01*
X122883439Y-73796721D01*
X122799295Y-73899164D01*
X122693270Y-73999076D01*
X122565597Y-74096218D01*
X122416511Y-74190355D01*
X122246247Y-74281249D01*
X122055037Y-74368663D01*
X121973863Y-74402151D01*
X121726161Y-74493997D01*
X121457200Y-74579563D01*
X121167989Y-74658670D01*
X120859539Y-74731138D01*
X120532863Y-74796787D01*
X120188969Y-74855437D01*
X119828870Y-74906910D01*
X119453575Y-74951024D01*
X119064096Y-74987601D01*
X118661443Y-75016461D01*
X118452500Y-75028092D01*
X118359808Y-75032011D01*
X118248047Y-75035496D01*
X118121071Y-75038515D01*
X117982732Y-75041039D01*
X117836883Y-75043038D01*
X117687378Y-75044482D01*
X117538070Y-75045340D01*
X117392812Y-75045583D01*
X117255456Y-75045180D01*
X117129856Y-75044100D01*
X117019866Y-75042315D01*
X116934273Y-75039971D01*
X116566360Y-75023525D01*
X116206978Y-75000539D01*
X115856984Y-74971217D01*
X115517237Y-74935767D01*
X115188596Y-74894394D01*
X114871920Y-74847303D01*
X114568068Y-74794700D01*
X114277899Y-74736792D01*
X114002272Y-74673785D01*
X113742046Y-74605883D01*
X113498079Y-74533293D01*
X113271230Y-74456220D01*
X113062359Y-74374872D01*
X112872325Y-74289452D01*
X112701986Y-74200168D01*
X112552200Y-74107225D01*
X112423828Y-74010829D01*
X112346162Y-73940412D01*
X112258127Y-73844964D01*
X112191174Y-73752866D01*
X112144056Y-73661579D01*
X112115529Y-73568562D01*
X112104347Y-73471272D01*
X112104110Y-73446546D01*
X112113222Y-73344644D01*
X112139410Y-73248390D01*
X112183979Y-73155128D01*
X112248237Y-73062203D01*
X112333488Y-72966959D01*
X112346221Y-72954228D01*
X112458386Y-72855788D01*
X112592729Y-72760002D01*
X112748450Y-72667229D01*
X112924748Y-72577826D01*
X113120826Y-72492154D01*
X113335884Y-72410570D01*
X113569122Y-72333432D01*
X113819741Y-72261099D01*
X113989322Y-72217387D01*
X114048014Y-72202710D01*
X114098247Y-72189746D01*
X114135985Y-72179568D01*
X114157187Y-72173250D01*
X114160281Y-72171931D01*
X114160914Y-72159485D01*
X114159686Y-72128215D01*
X114156834Y-72082290D01*
X114152597Y-72025882D01*
X114150426Y-71999638D01*
X114142818Y-71807483D01*
X114153804Y-71629020D01*
X114183373Y-71464261D01*
X114231515Y-71313221D01*
X114298219Y-71175914D01*
X114383475Y-71052352D01*
X114487272Y-70942551D01*
X114609601Y-70846522D01*
X114750450Y-70764280D01*
X114909810Y-70695838D01*
X115087669Y-70641211D01*
X115208991Y-70613938D01*
X115324803Y-70593048D01*
X115434669Y-70577491D01*
X115545387Y-70566638D01*
X115663754Y-70559858D01*
X115796565Y-70556522D01*
X115832753Y-70556152D01*
X116058472Y-70554410D01*
X116092281Y-70592114D01*
X116092281Y-70592114D01*
G37*
X116092281Y-70592114D02*
X116119434Y-70637176D01*
X116127051Y-70685722D01*
X116116010Y-70732293D01*
X116087190Y-70771435D01*
X116060463Y-70789740D01*
X116038400Y-70795114D01*
X115998411Y-70799319D01*
X115945652Y-70801947D01*
X115898248Y-70802637D01*
X115733192Y-70806544D01*
X115569043Y-70817860D01*
X115410613Y-70835975D01*
X115262711Y-70860282D01*
X115130148Y-70890172D01*
X115069682Y-70907467D01*
X114921050Y-70961880D01*
X114792652Y-71026768D01*
X114683710Y-71103034D01*
X114593447Y-71191576D01*
X114521084Y-71293296D01*
X114465844Y-71409094D01*
X114426949Y-71539869D01*
X114404587Y-71677350D01*
X114400474Y-71730615D01*
X114398242Y-71793277D01*
X114397758Y-71860691D01*
X114398890Y-71928215D01*
X114401503Y-71991205D01*
X114405466Y-72045018D01*
X114410646Y-72085010D01*
X114416857Y-72106453D01*
X114425884Y-72112231D01*
X114445453Y-72113271D01*
X114479236Y-72109310D01*
X114530907Y-72100083D01*
X114545688Y-72097192D01*
X114682825Y-72071703D01*
X114835858Y-72046132D01*
X115001294Y-72020882D01*
X115175642Y-71996355D01*
X115355411Y-71972955D01*
X115537108Y-71951083D01*
X115717242Y-71931143D01*
X115892321Y-71913537D01*
X116058853Y-71898668D01*
X116213347Y-71886938D01*
X116352311Y-71878751D01*
X116472254Y-71874509D01*
X116477266Y-71874415D01*
X116523376Y-71874052D01*
X116552925Y-71876207D01*
X116572436Y-71882720D01*
X116588429Y-71895427D01*
X116601380Y-71909391D01*
X116626622Y-71952175D01*
X116634819Y-72000168D01*
X116626750Y-72047068D01*
X116603191Y-72086570D01*
X116577027Y-72106918D01*
X116558684Y-72111483D01*
X116521689Y-72116771D01*
X116470449Y-72122285D01*
X116409370Y-72127531D01*
X116366915Y-72130533D01*
X115996852Y-72158323D01*
X115637008Y-72192917D01*
X115292438Y-72233806D01*
X115156273Y-72252340D01*
X115079598Y-72263530D01*
X114996418Y-72276252D01*
X114909814Y-72289977D01*
X114822866Y-72304177D01*
X114738654Y-72318322D01*
X114660260Y-72331884D01*
X114590764Y-72344334D01*
X114533247Y-72355142D01*
X114490789Y-72363779D01*
X114466471Y-72369716D01*
X114462016Y-72371562D01*
X114460423Y-72385310D01*
X114462118Y-72416505D01*
X114466711Y-72459800D01*
X114470538Y-72488273D01*
X114493815Y-72677553D01*
X114510581Y-72874759D01*
X114520840Y-73075724D01*
X114524597Y-73276284D01*
X114521857Y-73472274D01*
X114512623Y-73659529D01*
X114496901Y-73833884D01*
X114474696Y-73991173D01*
X114468832Y-74023652D01*
X114458165Y-74072332D01*
X114446340Y-74105131D01*
X114430211Y-74129175D01*
X114415938Y-74143475D01*
X114389412Y-74164220D01*
X114364596Y-74172197D01*
X114329838Y-74170943D01*
X114326607Y-74170587D01*
X114284383Y-74160979D01*
X114252360Y-74139641D01*
X114240239Y-74127079D01*
X114227391Y-74111973D01*
X114218370Y-74097384D01*
X114213146Y-74079807D01*
X114211689Y-74055737D01*
X114213969Y-74021669D01*
X114219956Y-73974099D01*
X114229620Y-73909522D01*
X114237915Y-73856410D01*
X114254986Y-73718979D01*
X114266389Y-73563752D01*
X114272187Y-73395300D01*
X114272441Y-73218195D01*
X114267212Y-73037009D01*
X114256563Y-72856313D01*
X114240555Y-72680680D01*
X114219858Y-72518758D01*
X114213522Y-72477103D01*
X114206458Y-72450202D01*
X114194421Y-72436138D01*
X114173164Y-72432990D01*
X114138442Y-72438842D01*
X114086006Y-72451773D01*
X114076773Y-72454099D01*
X113805769Y-72526487D01*
X113557147Y-72601889D01*
X113330979Y-72680271D01*
X113127336Y-72761602D01*
X112946292Y-72845850D01*
X112787919Y-72932981D01*
X112652289Y-73022963D01*
X112539476Y-73115764D01*
X112492514Y-73162292D01*
X112430844Y-73235324D01*
X112388899Y-73304045D01*
X112364820Y-73372347D01*
X112356747Y-73444121D01*
X112356732Y-73446546D01*
X112363131Y-73513875D01*
X112384014Y-73577926D01*
X112421262Y-73642350D01*
X112476754Y-73710800D01*
X112511523Y-73747266D01*
X112614425Y-73838187D01*
X112739334Y-73926426D01*
X112885301Y-74011758D01*
X113051372Y-74093953D01*
X113236596Y-74172786D01*
X113440022Y-74248029D01*
X113660697Y-74319455D01*
X113897669Y-74386837D01*
X114149988Y-74449947D01*
X114416700Y-74508559D01*
X114696855Y-74562445D01*
X114989500Y-74611378D01*
X115293684Y-74655131D01*
X115608456Y-74693477D01*
X115932862Y-74726189D01*
X116265952Y-74753039D01*
X116606773Y-74773800D01*
X116859227Y-74784955D01*
X116959801Y-74787972D01*
X117079156Y-74790346D01*
X117212991Y-74792079D01*
X117357004Y-74793172D01*
X117506893Y-74793626D01*
X117658358Y-74793444D01*
X117807098Y-74792625D01*
X117948811Y-74791171D01*
X118079196Y-74789084D01*
X118193951Y-74786364D01*
X118250454Y-74784542D01*
X118615487Y-74767182D01*
X118981759Y-74741748D01*
X119345084Y-74708696D01*
X119701276Y-74668484D01*
X120046148Y-74621566D01*
X120375516Y-74568401D01*
X120580476Y-74530481D01*
X120870870Y-74469711D01*
X121143011Y-74404418D01*
X121396368Y-74334806D01*
X121630412Y-74261078D01*
X121844614Y-74183437D01*
X122038445Y-74102088D01*
X122211373Y-74017235D01*
X122362871Y-73929080D01*
X122492409Y-73837829D01*
X122582944Y-73759812D01*
X122658663Y-73677223D01*
X122711492Y-73595740D01*
X122741576Y-73514858D01*
X122749060Y-73434069D01*
X122734090Y-73352865D01*
X122713663Y-73302228D01*
X122680978Y-73249130D01*
X122632519Y-73189013D01*
X122572606Y-73126238D01*
X122505554Y-73065169D01*
X122435682Y-73010169D01*
X122401045Y-72986313D01*
X122241310Y-72891404D01*
X122059643Y-72800693D01*
X121856857Y-72714391D01*
X121633763Y-72632713D01*
X121391173Y-72555869D01*
X121129901Y-72484074D01*
X120850759Y-72417540D01*
X120554559Y-72356479D01*
X120242113Y-72301105D01*
X119914234Y-72251630D01*
X119571734Y-72208266D01*
X119331187Y-72182408D01*
X119249637Y-72173915D01*
X119174972Y-72165505D01*
X119110492Y-72157601D01*
X119059498Y-72150625D01*
X119025290Y-72145000D01*
X119011696Y-72141504D01*
X118981832Y-72117301D01*
X118957087Y-72083405D01*
X118943916Y-72049280D01*
X118943182Y-72041075D01*
X118952345Y-71995291D01*
X118976244Y-71952693D01*
X119009490Y-71922304D01*
X119016233Y-71918742D01*
X119031099Y-71912975D01*
X119048853Y-71909367D01*
X119072998Y-71907980D01*
X119107041Y-71908877D01*
X119154488Y-71912120D01*
X119218843Y-71917771D01*
X119278000Y-71923403D01*
X119685658Y-71967677D01*
X120073784Y-72019652D01*
X120441961Y-72079251D01*
X120789773Y-72146394D01*
X121116803Y-72221002D01*
X121422635Y-72302998D01*
X121635172Y-72368422D01*
X121873168Y-72451459D01*
X122088515Y-72537814D01*
X122281189Y-72627470D01*
X122451164Y-72720409D01*
X122598417Y-72816612D01*
X122722923Y-72916062D01*
X122824656Y-73018740D01*
X122903594Y-73124630D01*
X122959710Y-73233711D01*
X122992981Y-73345967D01*
X122996521Y-73366373D01*
X123002243Y-73476573D01*
X122985147Y-73585188D01*
X122945468Y-73691984D01*
X122883439Y-73796721D01*
X122799295Y-73899164D01*
X122693270Y-73999076D01*
X122565597Y-74096218D01*
X122416511Y-74190355D01*
X122246247Y-74281249D01*
X122055037Y-74368663D01*
X121973863Y-74402151D01*
X121726161Y-74493997D01*
X121457200Y-74579563D01*
X121167989Y-74658670D01*
X120859539Y-74731138D01*
X120532863Y-74796787D01*
X120188969Y-74855437D01*
X119828870Y-74906910D01*
X119453575Y-74951024D01*
X119064096Y-74987601D01*
X118661443Y-75016461D01*
X118452500Y-75028092D01*
X118359808Y-75032011D01*
X118248047Y-75035496D01*
X118121071Y-75038515D01*
X117982732Y-75041039D01*
X117836883Y-75043038D01*
X117687378Y-75044482D01*
X117538070Y-75045340D01*
X117392812Y-75045583D01*
X117255456Y-75045180D01*
X117129856Y-75044100D01*
X117019866Y-75042315D01*
X116934273Y-75039971D01*
X116566360Y-75023525D01*
X116206978Y-75000539D01*
X115856984Y-74971217D01*
X115517237Y-74935767D01*
X115188596Y-74894394D01*
X114871920Y-74847303D01*
X114568068Y-74794700D01*
X114277899Y-74736792D01*
X114002272Y-74673785D01*
X113742046Y-74605883D01*
X113498079Y-74533293D01*
X113271230Y-74456220D01*
X113062359Y-74374872D01*
X112872325Y-74289452D01*
X112701986Y-74200168D01*
X112552200Y-74107225D01*
X112423828Y-74010829D01*
X112346162Y-73940412D01*
X112258127Y-73844964D01*
X112191174Y-73752866D01*
X112144056Y-73661579D01*
X112115529Y-73568562D01*
X112104347Y-73471272D01*
X112104110Y-73446546D01*
X112113222Y-73344644D01*
X112139410Y-73248390D01*
X112183979Y-73155128D01*
X112248237Y-73062203D01*
X112333488Y-72966959D01*
X112346221Y-72954228D01*
X112458386Y-72855788D01*
X112592729Y-72760002D01*
X112748450Y-72667229D01*
X112924748Y-72577826D01*
X113120826Y-72492154D01*
X113335884Y-72410570D01*
X113569122Y-72333432D01*
X113819741Y-72261099D01*
X113989322Y-72217387D01*
X114048014Y-72202710D01*
X114098247Y-72189746D01*
X114135985Y-72179568D01*
X114157187Y-72173250D01*
X114160281Y-72171931D01*
X114160914Y-72159485D01*
X114159686Y-72128215D01*
X114156834Y-72082290D01*
X114152597Y-72025882D01*
X114150426Y-71999638D01*
X114142818Y-71807483D01*
X114153804Y-71629020D01*
X114183373Y-71464261D01*
X114231515Y-71313221D01*
X114298219Y-71175914D01*
X114383475Y-71052352D01*
X114487272Y-70942551D01*
X114609601Y-70846522D01*
X114750450Y-70764280D01*
X114909810Y-70695838D01*
X115087669Y-70641211D01*
X115208991Y-70613938D01*
X115324803Y-70593048D01*
X115434669Y-70577491D01*
X115545387Y-70566638D01*
X115663754Y-70559858D01*
X115796565Y-70556522D01*
X115832753Y-70556152D01*
X116058472Y-70554410D01*
X116092281Y-70592114D01*
G36*
X118275496Y-72759591D02*
X118309157Y-72797296D01*
X118334030Y-72839548D01*
X118342097Y-72886944D01*
X118334191Y-72933197D01*
X118311147Y-72972020D01*
X118283189Y-72993106D01*
X118261955Y-72998309D01*
X118222456Y-73003240D01*
X118169518Y-73007452D01*
X118107968Y-73010498D01*
X118088818Y-73011109D01*
X118017223Y-73013675D01*
X117962725Y-73017332D01*
X117919334Y-73022894D01*
X117881057Y-73031176D01*
X117841904Y-73042990D01*
X117833705Y-73045758D01*
X117711256Y-73098435D01*
X117603547Y-73167212D01*
X117511992Y-73250851D01*
X117438003Y-73348115D01*
X117394307Y-73430572D01*
X117382065Y-73461875D01*
X117376505Y-73483711D01*
X117377158Y-73489188D01*
X117389894Y-73489850D01*
X117422309Y-73488393D01*
X117471108Y-73485057D01*
X117532999Y-73480079D01*
X117604690Y-73473699D01*
X117649326Y-73469463D01*
X117742732Y-73460672D01*
X117816056Y-73454744D01*
X117872162Y-73451956D01*
X117913915Y-73452589D01*
X117944177Y-73456921D01*
X117965814Y-73465232D01*
X117981688Y-73477801D01*
X117994665Y-73494907D01*
X118000027Y-73503657D01*
X118018365Y-73554867D01*
X118014856Y-73605964D01*
X117989894Y-73652426D01*
X117986743Y-73656075D01*
X117953941Y-73692787D01*
X117336257Y-73752013D01*
X117343653Y-73798266D01*
X117368819Y-73886970D01*
X117412985Y-73967014D01*
X117473237Y-74035003D01*
X117546665Y-74087545D01*
X117617638Y-74117638D01*
X117657703Y-74128696D01*
X117694038Y-74135362D01*
X117733757Y-74138239D01*
X117783974Y-74137932D01*
X117833266Y-74135955D01*
X117903794Y-74131158D01*
X117966571Y-74123052D01*
X118027526Y-74110184D01*
X118092588Y-74091102D01*
X118167686Y-74064351D01*
X118238497Y-74036645D01*
X118298626Y-74013201D01*
X118342165Y-73998427D01*
X118373579Y-73991510D01*
X118397334Y-73991640D01*
X118417895Y-73998004D01*
X118426803Y-74002423D01*
X118469904Y-74036827D01*
X118494087Y-74081539D01*
X118497793Y-74132363D01*
X118488135Y-74167528D01*
X118476672Y-74189495D01*
X118460102Y-74207379D01*
X118433480Y-74224947D01*
X118391862Y-74245970D01*
X118374801Y-74253936D01*
X118236531Y-74310044D01*
X118096359Y-74352236D01*
X117957866Y-74379980D01*
X117824631Y-74392748D01*
X117700233Y-74390010D01*
X117588251Y-74371237D01*
X117585941Y-74370636D01*
X117495431Y-74343106D01*
X117420944Y-74310771D01*
X117355429Y-74269649D01*
X117291833Y-74215758D01*
X117265133Y-74189512D01*
X117224119Y-74139038D01*
X117182958Y-74073146D01*
X117145363Y-73999186D01*
X117115047Y-73924506D01*
X117095726Y-73856456D01*
X117095042Y-73852979D01*
X117087004Y-73782605D01*
X117085815Y-73699045D01*
X117090949Y-73610995D01*
X117101880Y-73527150D01*
X117118081Y-73456207D01*
X117119282Y-73452319D01*
X117175294Y-73310790D01*
X117249081Y-73183108D01*
X117339270Y-73070216D01*
X117444486Y-72973059D01*
X117563357Y-72892581D01*
X117694508Y-72829725D01*
X117836565Y-72785435D01*
X117988154Y-72760654D01*
X118133089Y-72755851D01*
X118275496Y-72759591D01*
X118275496Y-72759591D01*
G37*
X118275496Y-72759591D02*
X118309157Y-72797296D01*
X118334030Y-72839548D01*
X118342097Y-72886944D01*
X118334191Y-72933197D01*
X118311147Y-72972020D01*
X118283189Y-72993106D01*
X118261955Y-72998309D01*
X118222456Y-73003240D01*
X118169518Y-73007452D01*
X118107968Y-73010498D01*
X118088818Y-73011109D01*
X118017223Y-73013675D01*
X117962725Y-73017332D01*
X117919334Y-73022894D01*
X117881057Y-73031176D01*
X117841904Y-73042990D01*
X117833705Y-73045758D01*
X117711256Y-73098435D01*
X117603547Y-73167212D01*
X117511992Y-73250851D01*
X117438003Y-73348115D01*
X117394307Y-73430572D01*
X117382065Y-73461875D01*
X117376505Y-73483711D01*
X117377158Y-73489188D01*
X117389894Y-73489850D01*
X117422309Y-73488393D01*
X117471108Y-73485057D01*
X117532999Y-73480079D01*
X117604690Y-73473699D01*
X117649326Y-73469463D01*
X117742732Y-73460672D01*
X117816056Y-73454744D01*
X117872162Y-73451956D01*
X117913915Y-73452589D01*
X117944177Y-73456921D01*
X117965814Y-73465232D01*
X117981688Y-73477801D01*
X117994665Y-73494907D01*
X118000027Y-73503657D01*
X118018365Y-73554867D01*
X118014856Y-73605964D01*
X117989894Y-73652426D01*
X117986743Y-73656075D01*
X117953941Y-73692787D01*
X117336257Y-73752013D01*
X117343653Y-73798266D01*
X117368819Y-73886970D01*
X117412985Y-73967014D01*
X117473237Y-74035003D01*
X117546665Y-74087545D01*
X117617638Y-74117638D01*
X117657703Y-74128696D01*
X117694038Y-74135362D01*
X117733757Y-74138239D01*
X117783974Y-74137932D01*
X117833266Y-74135955D01*
X117903794Y-74131158D01*
X117966571Y-74123052D01*
X118027526Y-74110184D01*
X118092588Y-74091102D01*
X118167686Y-74064351D01*
X118238497Y-74036645D01*
X118298626Y-74013201D01*
X118342165Y-73998427D01*
X118373579Y-73991510D01*
X118397334Y-73991640D01*
X118417895Y-73998004D01*
X118426803Y-74002423D01*
X118469904Y-74036827D01*
X118494087Y-74081539D01*
X118497793Y-74132363D01*
X118488135Y-74167528D01*
X118476672Y-74189495D01*
X118460102Y-74207379D01*
X118433480Y-74224947D01*
X118391862Y-74245970D01*
X118374801Y-74253936D01*
X118236531Y-74310044D01*
X118096359Y-74352236D01*
X117957866Y-74379980D01*
X117824631Y-74392748D01*
X117700233Y-74390010D01*
X117588251Y-74371237D01*
X117585941Y-74370636D01*
X117495431Y-74343106D01*
X117420944Y-74310771D01*
X117355429Y-74269649D01*
X117291833Y-74215758D01*
X117265133Y-74189512D01*
X117224119Y-74139038D01*
X117182958Y-74073146D01*
X117145363Y-73999186D01*
X117115047Y-73924506D01*
X117095726Y-73856456D01*
X117095042Y-73852979D01*
X117087004Y-73782605D01*
X117085815Y-73699045D01*
X117090949Y-73610995D01*
X117101880Y-73527150D01*
X117118081Y-73456207D01*
X117119282Y-73452319D01*
X117175294Y-73310790D01*
X117249081Y-73183108D01*
X117339270Y-73070216D01*
X117444486Y-72973059D01*
X117563357Y-72892581D01*
X117694508Y-72829725D01*
X117836565Y-72785435D01*
X117988154Y-72760654D01*
X118133089Y-72755851D01*
X118275496Y-72759591D01*
G36*
X116295181Y-72705597D02*
X116337302Y-72708074D01*
X116367741Y-72713223D01*
X116390287Y-72721501D01*
X116408730Y-72733362D01*
X116413449Y-72737196D01*
X116445906Y-72778089D01*
X116457306Y-72826760D01*
X116446979Y-72880146D01*
X116445503Y-72883796D01*
X116431796Y-72910765D01*
X116414208Y-72930068D01*
X116388884Y-72943006D01*
X116351969Y-72950884D01*
X116299607Y-72955005D01*
X116230000Y-72956650D01*
X116086303Y-72966400D01*
X115957775Y-72992744D01*
X115842876Y-73036335D01*
X115740066Y-73097828D01*
X115647807Y-73177876D01*
X115608850Y-73220683D01*
X115587180Y-73249287D01*
X115562188Y-73286934D01*
X115536614Y-73328811D01*
X115513199Y-73370107D01*
X115494686Y-73406009D01*
X115483817Y-73431706D01*
X115482732Y-73442036D01*
X115494694Y-73441989D01*
X115526428Y-73440009D01*
X115574721Y-73436348D01*
X115636358Y-73431257D01*
X115708124Y-73424989D01*
X115758528Y-73420418D01*
X115851604Y-73412068D01*
X115924605Y-73406351D01*
X115980429Y-73403539D01*
X116021970Y-73403908D01*
X116052125Y-73407733D01*
X116073789Y-73415286D01*
X116089859Y-73426843D01*
X116103231Y-73442679D01*
X116110800Y-73453793D01*
X116129326Y-73501146D01*
X116127660Y-73550284D01*
X116107370Y-73595260D01*
X116070023Y-73630128D01*
X116063335Y-73633964D01*
X116047692Y-73637555D01*
X116012904Y-73642913D01*
X115962815Y-73649612D01*
X115901265Y-73657225D01*
X115832097Y-73665325D01*
X115759152Y-73673483D01*
X115686273Y-73681273D01*
X115617302Y-73688267D01*
X115556080Y-73694038D01*
X115506450Y-73698158D01*
X115472253Y-73700201D01*
X115466604Y-73700337D01*
X115455697Y-73703744D01*
X115452663Y-73717373D01*
X115456561Y-73746842D01*
X115457736Y-73753250D01*
X115485137Y-73847864D01*
X115529496Y-73927047D01*
X115591591Y-73991846D01*
X115672200Y-74043306D01*
X115674722Y-74044561D01*
X115711233Y-74062262D01*
X115740054Y-74074232D01*
X115767220Y-74081574D01*
X115798764Y-74085391D01*
X115840722Y-74086783D01*
X115899129Y-74086854D01*
X115906153Y-74086831D01*
X115983687Y-74084784D01*
X116052853Y-74078324D01*
X116119590Y-74066133D01*
X116189837Y-74046889D01*
X116269535Y-74019270D01*
X116348579Y-73988452D01*
X116413603Y-73963593D01*
X116462348Y-73949052D01*
X116499132Y-73944710D01*
X116528271Y-73950448D01*
X116554082Y-73966145D01*
X116571745Y-73982255D01*
X116598026Y-74013438D01*
X116609353Y-74043167D01*
X116611000Y-74066277D01*
X116605987Y-74106562D01*
X116588769Y-74139153D01*
X116556078Y-74167760D01*
X116504646Y-74196088D01*
X116491021Y-74202412D01*
X116352412Y-74257953D01*
X116212004Y-74300318D01*
X116073587Y-74328873D01*
X115940953Y-74342988D01*
X115817892Y-74342028D01*
X115727773Y-74329755D01*
X115609929Y-74294105D01*
X115502796Y-74238959D01*
X115408359Y-74166194D01*
X115328602Y-74077683D01*
X115265511Y-73975302D01*
X115221070Y-73860927D01*
X115217373Y-73847573D01*
X115202406Y-73763649D01*
X115197184Y-73667131D01*
X115201464Y-73566245D01*
X115215005Y-73469216D01*
X115230418Y-73406137D01*
X115283626Y-73268072D01*
X115355546Y-73141970D01*
X115444387Y-73029179D01*
X115548354Y-72931046D01*
X115665654Y-72848919D01*
X115794494Y-72784148D01*
X115933080Y-72738079D01*
X116079618Y-72712061D01*
X116160727Y-72706841D01*
X116237586Y-72705338D01*
X116295181Y-72705597D01*
X116295181Y-72705597D01*
G37*
X116295181Y-72705597D02*
X116337302Y-72708074D01*
X116367741Y-72713223D01*
X116390287Y-72721501D01*
X116408730Y-72733362D01*
X116413449Y-72737196D01*
X116445906Y-72778089D01*
X116457306Y-72826760D01*
X116446979Y-72880146D01*
X116445503Y-72883796D01*
X116431796Y-72910765D01*
X116414208Y-72930068D01*
X116388884Y-72943006D01*
X116351969Y-72950884D01*
X116299607Y-72955005D01*
X116230000Y-72956650D01*
X116086303Y-72966400D01*
X115957775Y-72992744D01*
X115842876Y-73036335D01*
X115740066Y-73097828D01*
X115647807Y-73177876D01*
X115608850Y-73220683D01*
X115587180Y-73249287D01*
X115562188Y-73286934D01*
X115536614Y-73328811D01*
X115513199Y-73370107D01*
X115494686Y-73406009D01*
X115483817Y-73431706D01*
X115482732Y-73442036D01*
X115494694Y-73441989D01*
X115526428Y-73440009D01*
X115574721Y-73436348D01*
X115636358Y-73431257D01*
X115708124Y-73424989D01*
X115758528Y-73420418D01*
X115851604Y-73412068D01*
X115924605Y-73406351D01*
X115980429Y-73403539D01*
X116021970Y-73403908D01*
X116052125Y-73407733D01*
X116073789Y-73415286D01*
X116089859Y-73426843D01*
X116103231Y-73442679D01*
X116110800Y-73453793D01*
X116129326Y-73501146D01*
X116127660Y-73550284D01*
X116107370Y-73595260D01*
X116070023Y-73630128D01*
X116063335Y-73633964D01*
X116047692Y-73637555D01*
X116012904Y-73642913D01*
X115962815Y-73649612D01*
X115901265Y-73657225D01*
X115832097Y-73665325D01*
X115759152Y-73673483D01*
X115686273Y-73681273D01*
X115617302Y-73688267D01*
X115556080Y-73694038D01*
X115506450Y-73698158D01*
X115472253Y-73700201D01*
X115466604Y-73700337D01*
X115455697Y-73703744D01*
X115452663Y-73717373D01*
X115456561Y-73746842D01*
X115457736Y-73753250D01*
X115485137Y-73847864D01*
X115529496Y-73927047D01*
X115591591Y-73991846D01*
X115672200Y-74043306D01*
X115674722Y-74044561D01*
X115711233Y-74062262D01*
X115740054Y-74074232D01*
X115767220Y-74081574D01*
X115798764Y-74085391D01*
X115840722Y-74086783D01*
X115899129Y-74086854D01*
X115906153Y-74086831D01*
X115983687Y-74084784D01*
X116052853Y-74078324D01*
X116119590Y-74066133D01*
X116189837Y-74046889D01*
X116269535Y-74019270D01*
X116348579Y-73988452D01*
X116413603Y-73963593D01*
X116462348Y-73949052D01*
X116499132Y-73944710D01*
X116528271Y-73950448D01*
X116554082Y-73966145D01*
X116571745Y-73982255D01*
X116598026Y-74013438D01*
X116609353Y-74043167D01*
X116611000Y-74066277D01*
X116605987Y-74106562D01*
X116588769Y-74139153D01*
X116556078Y-74167760D01*
X116504646Y-74196088D01*
X116491021Y-74202412D01*
X116352412Y-74257953D01*
X116212004Y-74300318D01*
X116073587Y-74328873D01*
X115940953Y-74342988D01*
X115817892Y-74342028D01*
X115727773Y-74329755D01*
X115609929Y-74294105D01*
X115502796Y-74238959D01*
X115408359Y-74166194D01*
X115328602Y-74077683D01*
X115265511Y-73975302D01*
X115221070Y-73860927D01*
X115217373Y-73847573D01*
X115202406Y-73763649D01*
X115197184Y-73667131D01*
X115201464Y-73566245D01*
X115215005Y-73469216D01*
X115230418Y-73406137D01*
X115283626Y-73268072D01*
X115355546Y-73141970D01*
X115444387Y-73029179D01*
X115548354Y-72931046D01*
X115665654Y-72848919D01*
X115794494Y-72784148D01*
X115933080Y-72738079D01*
X116079618Y-72712061D01*
X116160727Y-72706841D01*
X116237586Y-72705338D01*
X116295181Y-72705597D01*
G36*
X120023267Y-72636735D02*
X120055167Y-72640316D01*
X120076448Y-72648386D01*
X120087797Y-72656813D01*
X120121411Y-72700753D01*
X120134547Y-72752161D01*
X120131409Y-72787088D01*
X120116344Y-72827626D01*
X120090085Y-72855943D01*
X120049111Y-72874261D01*
X119989902Y-72884803D01*
X119974176Y-72886290D01*
X119846196Y-72904456D01*
X119717513Y-72936411D01*
X119597181Y-72979673D01*
X119544517Y-73003993D01*
X119443356Y-73064770D01*
X119358795Y-73135710D01*
X119291051Y-73214646D01*
X119240342Y-73299415D01*
X119206884Y-73387850D01*
X119190894Y-73477786D01*
X119192589Y-73567058D01*
X119212188Y-73653500D01*
X119249906Y-73734948D01*
X119305961Y-73809236D01*
X119380569Y-73874198D01*
X119452919Y-73917576D01*
X119529857Y-73952132D01*
X119606360Y-73976904D01*
X119688254Y-73993064D01*
X119781361Y-74001780D01*
X119884136Y-74004233D01*
X120036902Y-73997878D01*
X120191761Y-73978292D01*
X120351961Y-73944750D01*
X120520745Y-73896525D01*
X120701360Y-73832890D01*
X120770550Y-73805809D01*
X120831403Y-73783369D01*
X120876938Y-73772319D01*
X120911969Y-73772736D01*
X120941310Y-73784699D01*
X120969776Y-73808288D01*
X120970563Y-73809073D01*
X120996348Y-73839281D01*
X121007734Y-73868007D01*
X121009818Y-73896552D01*
X121006838Y-73925118D01*
X120996523Y-73950756D01*
X120976807Y-73974728D01*
X120945624Y-73998293D01*
X120900912Y-74022714D01*
X120840603Y-74049250D01*
X120762634Y-74079163D01*
X120664940Y-74113713D01*
X120640363Y-74122141D01*
X120479987Y-74171077D01*
X120316552Y-74209995D01*
X120154580Y-74238233D01*
X119998592Y-74255129D01*
X119853111Y-74260019D01*
X119739818Y-74254114D01*
X119587895Y-74229986D01*
X119448903Y-74189921D01*
X119323973Y-74134749D01*
X119214235Y-74065298D01*
X119120820Y-73982398D01*
X119044858Y-73886877D01*
X118987479Y-73779565D01*
X118953604Y-73677455D01*
X118943289Y-73614152D01*
X118938963Y-73538319D01*
X118940469Y-73458769D01*
X118947649Y-73384317D01*
X118959883Y-73325319D01*
X119007868Y-73203200D01*
X119076294Y-73087750D01*
X119162914Y-72981331D01*
X119265481Y-72886307D01*
X119381751Y-72805041D01*
X119509477Y-72739898D01*
X119520641Y-72735241D01*
X119642752Y-72692436D01*
X119771123Y-72660495D01*
X119897092Y-72641303D01*
X119974568Y-72636537D01*
X120023267Y-72636735D01*
X120023267Y-72636735D01*
G37*
X120023267Y-72636735D02*
X120055167Y-72640316D01*
X120076448Y-72648386D01*
X120087797Y-72656813D01*
X120121411Y-72700753D01*
X120134547Y-72752161D01*
X120131409Y-72787088D01*
X120116344Y-72827626D01*
X120090085Y-72855943D01*
X120049111Y-72874261D01*
X119989902Y-72884803D01*
X119974176Y-72886290D01*
X119846196Y-72904456D01*
X119717513Y-72936411D01*
X119597181Y-72979673D01*
X119544517Y-73003993D01*
X119443356Y-73064770D01*
X119358795Y-73135710D01*
X119291051Y-73214646D01*
X119240342Y-73299415D01*
X119206884Y-73387850D01*
X119190894Y-73477786D01*
X119192589Y-73567058D01*
X119212188Y-73653500D01*
X119249906Y-73734948D01*
X119305961Y-73809236D01*
X119380569Y-73874198D01*
X119452919Y-73917576D01*
X119529857Y-73952132D01*
X119606360Y-73976904D01*
X119688254Y-73993064D01*
X119781361Y-74001780D01*
X119884136Y-74004233D01*
X120036902Y-73997878D01*
X120191761Y-73978292D01*
X120351961Y-73944750D01*
X120520745Y-73896525D01*
X120701360Y-73832890D01*
X120770550Y-73805809D01*
X120831403Y-73783369D01*
X120876938Y-73772319D01*
X120911969Y-73772736D01*
X120941310Y-73784699D01*
X120969776Y-73808288D01*
X120970563Y-73809073D01*
X120996348Y-73839281D01*
X121007734Y-73868007D01*
X121009818Y-73896552D01*
X121006838Y-73925118D01*
X120996523Y-73950756D01*
X120976807Y-73974728D01*
X120945624Y-73998293D01*
X120900912Y-74022714D01*
X120840603Y-74049250D01*
X120762634Y-74079163D01*
X120664940Y-74113713D01*
X120640363Y-74122141D01*
X120479987Y-74171077D01*
X120316552Y-74209995D01*
X120154580Y-74238233D01*
X119998592Y-74255129D01*
X119853111Y-74260019D01*
X119739818Y-74254114D01*
X119587895Y-74229986D01*
X119448903Y-74189921D01*
X119323973Y-74134749D01*
X119214235Y-74065298D01*
X119120820Y-73982398D01*
X119044858Y-73886877D01*
X118987479Y-73779565D01*
X118953604Y-73677455D01*
X118943289Y-73614152D01*
X118938963Y-73538319D01*
X118940469Y-73458769D01*
X118947649Y-73384317D01*
X118959883Y-73325319D01*
X119007868Y-73203200D01*
X119076294Y-73087750D01*
X119162914Y-72981331D01*
X119265481Y-72886307D01*
X119381751Y-72805041D01*
X119509477Y-72739898D01*
X119520641Y-72735241D01*
X119642752Y-72692436D01*
X119771123Y-72660495D01*
X119897092Y-72641303D01*
X119974568Y-72636537D01*
X120023267Y-72636735D01*
G36*
X118589697Y-71638983D02*
X118654711Y-71668467D01*
X118711956Y-71711673D01*
X118758480Y-71767853D01*
X118791331Y-71836260D01*
X118807557Y-71916149D01*
X118808762Y-71945637D01*
X118798163Y-72031674D01*
X118766908Y-72108360D01*
X118716233Y-72173687D01*
X118647374Y-72225646D01*
X118630927Y-72234565D01*
X118578944Y-72252879D01*
X118515504Y-72263468D01*
X118450904Y-72265398D01*
X118395439Y-72257737D01*
X118390610Y-72256352D01*
X118314659Y-72222093D01*
X118252343Y-72171934D01*
X118205083Y-72109363D01*
X118174298Y-72037872D01*
X118161407Y-71960950D01*
X118167830Y-71882086D01*
X118194986Y-71804771D01*
X118201755Y-71792053D01*
X118251398Y-71723524D01*
X118310981Y-71673198D01*
X118377555Y-71640328D01*
X118448167Y-71624167D01*
X118519865Y-71623967D01*
X118589697Y-71638983D01*
X118589697Y-71638983D01*
G37*
X118589697Y-71638983D02*
X118654711Y-71668467D01*
X118711956Y-71711673D01*
X118758480Y-71767853D01*
X118791331Y-71836260D01*
X118807557Y-71916149D01*
X118808762Y-71945637D01*
X118798163Y-72031674D01*
X118766908Y-72108360D01*
X118716233Y-72173687D01*
X118647374Y-72225646D01*
X118630927Y-72234565D01*
X118578944Y-72252879D01*
X118515504Y-72263468D01*
X118450904Y-72265398D01*
X118395439Y-72257737D01*
X118390610Y-72256352D01*
X118314659Y-72222093D01*
X118252343Y-72171934D01*
X118205083Y-72109363D01*
X118174298Y-72037872D01*
X118161407Y-71960950D01*
X118167830Y-71882086D01*
X118194986Y-71804771D01*
X118201755Y-71792053D01*
X118251398Y-71723524D01*
X118310981Y-71673198D01*
X118377555Y-71640328D01*
X118448167Y-71624167D01*
X118519865Y-71623967D01*
X118589697Y-71638983D01*
G36*
X117204932Y-71603008D02*
X117230996Y-71614839D01*
X117299062Y-71661212D01*
X117351024Y-71720930D01*
X117386196Y-71790260D01*
X117403891Y-71865469D01*
X117403422Y-71942823D01*
X117384103Y-72018589D01*
X117345246Y-72089033D01*
X117323159Y-72115892D01*
X117257709Y-72172604D01*
X117184779Y-72207675D01*
X117102900Y-72221757D01*
X117084363Y-72222108D01*
X117036875Y-72219425D01*
X116991723Y-72212893D01*
X116965999Y-72206255D01*
X116894072Y-72169130D01*
X116835742Y-72116101D01*
X116792533Y-72050948D01*
X116765971Y-71977451D01*
X116757581Y-71899389D01*
X116768888Y-71820543D01*
X116789015Y-71767568D01*
X116835835Y-71695864D01*
X116896318Y-71640259D01*
X116966966Y-71601963D01*
X117044283Y-71582183D01*
X117124770Y-71582129D01*
X117204932Y-71603008D01*
X117204932Y-71603008D01*
G37*
X117204932Y-71603008D02*
X117230996Y-71614839D01*
X117299062Y-71661212D01*
X117351024Y-71720930D01*
X117386196Y-71790260D01*
X117403891Y-71865469D01*
X117403422Y-71942823D01*
X117384103Y-72018589D01*
X117345246Y-72089033D01*
X117323159Y-72115892D01*
X117257709Y-72172604D01*
X117184779Y-72207675D01*
X117102900Y-72221757D01*
X117084363Y-72222108D01*
X117036875Y-72219425D01*
X116991723Y-72212893D01*
X116965999Y-72206255D01*
X116894072Y-72169130D01*
X116835742Y-72116101D01*
X116792533Y-72050948D01*
X116765971Y-71977451D01*
X116757581Y-71899389D01*
X116768888Y-71820543D01*
X116789015Y-71767568D01*
X116835835Y-71695864D01*
X116896318Y-71640259D01*
X116966966Y-71601963D01*
X117044283Y-71582183D01*
X117124770Y-71582129D01*
X117204932Y-71603008D01*
D17*
X122330000Y-124669000D02*
X124050000Y-124669000D01*
X124050000Y-124669000D02*
X124050000Y-120949000D01*
X124050000Y-120949000D02*
X122330000Y-120949000D01*
X122330000Y-120949000D02*
X122330000Y-124669000D01*
X123190000Y-125739000D02*
X123190000Y-124669000D01*
X123190000Y-119879000D02*
X123190000Y-120949000D01*
X113382000Y-122219000D02*
X111662000Y-122219000D01*
X111662000Y-122219000D02*
X111662000Y-125939000D01*
X111662000Y-125939000D02*
X113382000Y-125939000D01*
X113382000Y-125939000D02*
X113382000Y-122219000D01*
X112522000Y-121149000D02*
X112522000Y-122219000D01*
X112522000Y-127009000D02*
X112522000Y-125939000D01*
X121748000Y-117573000D02*
X121748000Y-115853000D01*
X121748000Y-115853000D02*
X118028000Y-115853000D01*
X118028000Y-115853000D02*
X118028000Y-117573000D01*
X118028000Y-117573000D02*
X121748000Y-117573000D01*
X122818000Y-116713000D02*
X121748000Y-116713000D01*
X116958000Y-116713000D02*
X118028000Y-116713000D01*
D18*
X179324000Y-90805000D02*
G75*
G03X179324000Y-90805000I-2286000J0D01*
G01*
X128524000Y-75565000D02*
G75*
G03X128524000Y-75565000I-2286000J0D01*
G01*
X179324000Y-118745000D02*
G75*
G03X179324000Y-118745000I-2286000J0D01*
G01*
D19*
X117348000Y-127889000D02*
X119888000Y-127889000D01*
X119888000Y-127889000D02*
X119888000Y-125349000D01*
X119888000Y-125349000D02*
X119888000Y-117729000D01*
X119888000Y-117729000D02*
X114808000Y-117729000D01*
X114808000Y-117729000D02*
X114808000Y-127889000D01*
X114808000Y-127889000D02*
X117348000Y-127889000D01*
D18*
X117602095Y-130643381D02*
X117602095Y-131452905D01*
X117649714Y-131548143D01*
X117697333Y-131595762D01*
X117792571Y-131643381D01*
X117983048Y-131643381D01*
X118078286Y-131595762D01*
X118125905Y-131548143D01*
X118173524Y-131452905D01*
X118173524Y-130643381D01*
X119173524Y-131643381D02*
X118602095Y-131643381D01*
X118887809Y-131643381D02*
X118887809Y-130643381D01*
X118792571Y-130786238D01*
X118697333Y-130881476D01*
X118602095Y-130929095D01*
M02*
