M48
;DRILL file {KiCad 4.0.6} date 08/07/17 15:42:36
;FORMAT={-:-/ absolute / inch / decimal}
FMAT,2
INCH,TZ
T1C0.028
T2C0.039
T3C0.040
T4C0.120
%
G90
G05
M72
T1
X4.43Y-4.735
X4.43Y-5.035
X4.57Y-4.595
X4.85Y-4.685
X4.85Y-4.985
X4.87Y-4.595
T2
X4.53Y-3.235
X4.53Y-3.335
X4.53Y-3.435
X4.53Y-3.535
X4.53Y-3.635
X4.53Y-3.735
X4.53Y-3.835
X4.53Y-3.935
X4.53Y-4.035
X4.53Y-4.135
X4.53Y-4.235
X4.53Y-4.335
X4.53Y-4.435
X4.63Y-3.235
X4.63Y-3.335
X4.63Y-3.435
X4.63Y-3.535
X4.63Y-3.635
X4.63Y-3.735
X4.63Y-3.835
X4.63Y-3.935
X4.63Y-4.035
X4.63Y-4.135
X4.63Y-4.235
X4.63Y-4.335
X4.63Y-4.435
X4.73Y-3.235
X4.73Y-3.335
X4.73Y-3.435
X4.73Y-3.535
X4.73Y-3.635
X4.73Y-3.735
X4.73Y-3.835
X4.73Y-3.935
X4.73Y-4.035
X4.73Y-4.135
X4.73Y-4.235
X4.73Y-4.335
X4.73Y-4.435
X4.83Y-3.235
X4.83Y-3.335
X4.83Y-3.435
X4.83Y-3.535
X4.83Y-3.635
X4.83Y-3.735
X4.83Y-3.835
X4.83Y-3.935
X4.83Y-4.035
X4.83Y-4.135
X4.83Y-4.235
X4.83Y-4.335
X4.83Y-4.435
X4.93Y-3.235
X4.93Y-3.335
X4.93Y-3.435
X4.93Y-3.535
X4.93Y-3.635
X4.93Y-3.735
X4.93Y-3.835
X4.93Y-3.935
X4.93Y-4.035
X4.93Y-4.135
X4.93Y-4.235
X4.93Y-4.335
X4.93Y-4.435
X5.0098Y-4.6933
X5.0098Y-4.7933
X5.03Y-3.235
X5.03Y-3.335
X5.03Y-3.435
X5.03Y-3.535
X5.03Y-3.635
X5.03Y-3.735
X5.03Y-3.835
X5.03Y-3.935
X5.03Y-4.035
X5.03Y-4.135
X5.03Y-4.235
X5.03Y-4.335
X5.03Y-4.435
X5.1098Y-4.6933
X5.1098Y-4.7933
X5.11Y-2.855
X5.11Y-3.095
X5.13Y-3.235
X5.13Y-3.335
X5.13Y-3.435
X5.13Y-3.535
X5.13Y-3.635
X5.13Y-3.735
X5.13Y-3.835
X5.13Y-3.935
X5.13Y-4.035
X5.13Y-4.135
X5.13Y-4.235
X5.13Y-4.335
X5.13Y-4.435
X5.21Y-2.855
X5.21Y-3.095
X5.23Y-3.235
X5.23Y-3.335
X5.23Y-3.435
X5.23Y-3.535
X5.23Y-3.635
X5.23Y-3.735
X5.23Y-3.835
X5.23Y-3.935
X5.23Y-4.035
X5.23Y-4.135
X5.23Y-4.235
X5.23Y-4.335
X5.23Y-4.435
X5.24Y-4.545
X5.24Y-4.645
X5.31Y-2.855
X5.31Y-3.095
X5.33Y-3.235
X5.33Y-3.335
X5.33Y-3.435
X5.33Y-3.535
X5.33Y-3.635
X5.33Y-3.735
X5.33Y-3.835
X5.33Y-3.935
X5.33Y-4.035
X5.33Y-4.135
X5.33Y-4.235
X5.33Y-4.335
X5.33Y-4.435
X5.34Y-4.545
X5.34Y-4.645
X5.41Y-2.855
X5.41Y-3.095
X5.43Y-3.235
X5.43Y-3.335
X5.43Y-3.435
X5.43Y-3.535
X5.43Y-3.635
X5.43Y-3.735
X5.43Y-3.835
X5.43Y-3.935
X5.43Y-4.035
X5.43Y-4.135
X5.43Y-4.235
X5.43Y-4.335
X5.43Y-4.435
X5.44Y-4.545
X5.44Y-4.645
X5.47Y-4.765
X5.47Y-4.985
X5.51Y-2.855
X5.51Y-3.095
X5.53Y-3.235
X5.53Y-3.335
X5.53Y-3.435
X5.53Y-3.535
X5.53Y-3.635
X5.53Y-3.735
X5.53Y-3.835
X5.53Y-3.935
X5.53Y-4.035
X5.53Y-4.135
X5.53Y-4.235
X5.53Y-4.335
X5.53Y-4.435
X5.54Y-4.545
X5.54Y-4.645
X5.57Y-4.765
X5.57Y-4.985
X5.61Y-2.855
X5.61Y-3.095
X5.63Y-3.235
X5.63Y-3.335
X5.63Y-3.435
X5.63Y-3.535
X5.63Y-3.635
X5.63Y-3.735
X5.63Y-3.835
X5.63Y-3.935
X5.63Y-4.035
X5.63Y-4.135
X5.63Y-4.235
X5.63Y-4.335
X5.63Y-4.435
X5.64Y-4.545
X5.64Y-4.645
X5.67Y-4.765
X5.67Y-4.985
X5.71Y-2.855
X5.71Y-3.095
X5.73Y-3.235
X5.73Y-3.335
X5.73Y-3.435
X5.73Y-3.535
X5.73Y-3.635
X5.73Y-3.735
X5.73Y-3.835
X5.73Y-3.935
X5.73Y-4.035
X5.73Y-4.135
X5.73Y-4.235
X5.73Y-4.335
X5.73Y-4.435
X5.74Y-4.545
X5.74Y-4.645
X5.77Y-4.765
X5.77Y-4.985
X5.81Y-2.855
X5.81Y-3.095
X5.83Y-3.235
X5.83Y-3.335
X5.83Y-3.435
X5.83Y-3.535
X5.83Y-3.635
X5.83Y-3.735
X5.83Y-3.835
X5.83Y-3.935
X5.83Y-4.035
X5.83Y-4.135
X5.83Y-4.235
X5.83Y-4.335
X5.83Y-4.435
X5.84Y-4.545
X5.84Y-4.645
X5.87Y-4.765
X5.87Y-4.985
X5.91Y-2.855
X5.91Y-3.095
X5.93Y-3.235
X5.93Y-3.335
X5.93Y-3.435
X5.93Y-3.535
X5.93Y-3.635
X5.93Y-3.735
X5.93Y-3.835
X5.93Y-3.935
X5.93Y-4.035
X5.93Y-4.135
X5.93Y-4.235
X5.93Y-4.335
X5.93Y-4.435
X5.94Y-4.545
X5.94Y-4.645
X5.97Y-4.765
X5.97Y-4.985
X6.01Y-2.855
X6.01Y-3.095
X6.03Y-3.235
X6.03Y-3.335
X6.03Y-3.435
X6.03Y-3.535
X6.03Y-3.635
X6.03Y-3.735
X6.03Y-3.835
X6.03Y-3.935
X6.03Y-4.035
X6.03Y-4.135
X6.03Y-4.235
X6.03Y-4.335
X6.03Y-4.435
X6.04Y-4.545
X6.04Y-4.645
X6.07Y-4.765
X6.07Y-4.985
X6.13Y-3.235
X6.13Y-3.335
X6.13Y-3.435
X6.13Y-3.535
X6.13Y-3.635
X6.13Y-3.735
X6.13Y-3.835
X6.13Y-3.935
X6.13Y-4.035
X6.13Y-4.135
X6.13Y-4.235
X6.13Y-4.335
X6.13Y-4.435
X6.14Y-4.545
X6.14Y-4.645
X6.17Y-2.855
X6.17Y-3.085
X6.17Y-4.765
X6.17Y-4.985
X6.23Y-3.235
X6.23Y-3.335
X6.23Y-3.435
X6.23Y-3.535
X6.23Y-3.635
X6.23Y-3.735
X6.23Y-3.835
X6.23Y-3.935
X6.23Y-4.035
X6.23Y-4.135
X6.23Y-4.235
X6.23Y-4.335
X6.23Y-4.435
X6.24Y-4.545
X6.24Y-4.645
X6.27Y-2.855
X6.27Y-3.085
X6.33Y-3.235
X6.33Y-3.335
X6.33Y-3.435
X6.33Y-3.535
X6.33Y-3.635
X6.33Y-3.735
X6.33Y-3.835
X6.33Y-3.935
X6.33Y-4.035
X6.33Y-4.135
X6.33Y-4.235
X6.33Y-4.335
X6.33Y-4.435
X6.34Y-4.545
X6.34Y-4.645
X6.37Y-2.855
X6.37Y-3.085
X6.37Y-4.765
X6.37Y-4.985
X6.43Y-3.235
X6.43Y-3.335
X6.43Y-3.435
X6.43Y-3.535
X6.43Y-3.635
X6.43Y-3.735
X6.43Y-3.835
X6.43Y-3.935
X6.43Y-4.035
X6.43Y-4.135
X6.43Y-4.235
X6.43Y-4.335
X6.43Y-4.435
X6.44Y-4.545
X6.44Y-4.645
X6.47Y-2.855
X6.47Y-3.085
X6.47Y-4.765
X6.47Y-4.985
X6.53Y-3.235
X6.53Y-3.335
X6.53Y-3.435
X6.53Y-3.535
X6.53Y-3.635
X6.53Y-3.735
X6.53Y-3.835
X6.53Y-3.935
X6.53Y-4.035
X6.53Y-4.135
X6.53Y-4.235
X6.53Y-4.335
X6.53Y-4.435
X6.54Y-4.545
X6.54Y-4.645
X6.57Y-2.855
X6.57Y-3.085
X6.57Y-4.765
X6.57Y-4.985
X6.63Y-3.235
X6.63Y-3.335
X6.63Y-3.435
X6.63Y-3.535
X6.63Y-3.635
X6.63Y-3.735
X6.63Y-3.835
X6.63Y-3.935
X6.63Y-4.035
X6.63Y-4.135
X6.63Y-4.235
X6.63Y-4.335
X6.63Y-4.435
X6.64Y-4.545
X6.64Y-4.645
X6.67Y-2.855
X6.67Y-3.085
X6.67Y-4.765
X6.67Y-4.985
X6.73Y-3.235
X6.73Y-3.335
X6.73Y-3.435
X6.73Y-3.535
X6.73Y-3.635
X6.73Y-3.735
X6.73Y-3.835
X6.73Y-3.935
X6.73Y-4.035
X6.73Y-4.135
X6.73Y-4.235
X6.73Y-4.335
X6.73Y-4.435
X6.74Y-4.545
X6.74Y-4.645
X6.77Y-2.855
X6.77Y-3.085
X6.77Y-4.765
X6.77Y-4.985
X6.83Y-3.235
X6.83Y-3.335
X6.83Y-3.435
X6.83Y-3.535
X6.83Y-3.635
X6.83Y-3.735
X6.83Y-3.835
X6.83Y-3.935
X6.83Y-4.035
X6.83Y-4.135
X6.83Y-4.235
X6.83Y-4.335
X6.83Y-4.435
X6.84Y-4.545
X6.84Y-4.645
X6.87Y-2.855
X6.87Y-3.085
X6.87Y-4.765
X6.87Y-4.985
T3
X4.57Y-4.685
X4.57Y-4.785
X4.57Y-4.885
X4.57Y-4.985
X4.67Y-4.685
X4.67Y-4.785
X4.67Y-4.885
X4.67Y-4.985
X5.11Y-2.975
X5.21Y-2.975
X5.31Y-2.975
X5.41Y-2.975
X5.47Y-4.875
X5.51Y-2.975
X5.57Y-4.875
X5.61Y-2.975
X5.67Y-4.875
X5.71Y-2.975
X5.77Y-4.875
X5.81Y-2.975
X5.87Y-4.875
X5.91Y-2.975
X5.97Y-4.875
X6.01Y-2.975
X6.07Y-4.875
X6.17Y-2.975
X6.17Y-4.875
X6.27Y-2.975
X6.37Y-2.975
X6.37Y-4.875
X6.47Y-2.975
X6.47Y-4.875
X6.57Y-2.975
X6.57Y-4.875
X6.67Y-2.975
X6.67Y-4.875
X6.77Y-2.975
X6.77Y-4.875
X6.87Y-2.975
X6.87Y-4.875
T4
X4.97Y-2.975
X6.97Y-3.575
X6.97Y-4.675
T0
M30
