G04 #@! TF.FileFunction,Copper,L2,Bot,Signal*
%FSLAX46Y46*%
G04 Gerber Fmt 4.6, Leading zero omitted, Abs format (unit mm)*
G04 Created by KiCad (PCBNEW 4.0.6) date 08/09/17 12:21:06*
%MOMM*%
%LPD*%
G01*
G04 APERTURE LIST*
%ADD10C,0.100000*%
%ADD11O,1.727200X2.032000*%
%ADD12O,1.700000X1.700000*%
%ADD13C,1.400000*%
%ADD14O,1.400000X1.400000*%
%ADD15C,4.064000*%
%ADD16O,1.727200X1.727200*%
%ADD17C,0.250000*%
%ADD18C,0.600000*%
G04 APERTURE END LIST*
D10*
D11*
X129794000Y-75565000D03*
X132334000Y-75565000D03*
X134874000Y-75565000D03*
X137414000Y-75565000D03*
X139954000Y-75565000D03*
X142494000Y-75565000D03*
X145034000Y-75565000D03*
X147574000Y-75565000D03*
X150114000Y-75565000D03*
X152654000Y-75565000D03*
D12*
X129794000Y-78613000D03*
X132334000Y-78613000D03*
X134874000Y-78613000D03*
X137414000Y-78613000D03*
X139954000Y-78613000D03*
X142494000Y-78613000D03*
X145034000Y-78613000D03*
X147574000Y-78613000D03*
X150114000Y-78613000D03*
X152654000Y-78613000D03*
X129794000Y-72517000D03*
X132334000Y-72517000D03*
X134874000Y-72517000D03*
X137414000Y-72517000D03*
X139954000Y-72517000D03*
X142494000Y-72517000D03*
X145034000Y-72517000D03*
X147574000Y-72517000D03*
X150114000Y-72517000D03*
X152654000Y-72517000D03*
X115062000Y-112649000D03*
X115062000Y-110109000D03*
X117602000Y-112649000D03*
X117602000Y-110109000D03*
X120142000Y-112649000D03*
X120142000Y-110109000D03*
X122682000Y-112649000D03*
X122682000Y-110109000D03*
X125222000Y-112649000D03*
X125222000Y-110109000D03*
X127762000Y-112649000D03*
X127762000Y-110109000D03*
X130302000Y-112649000D03*
X130302000Y-110109000D03*
X132842000Y-112649000D03*
X132842000Y-110109000D03*
X135382000Y-112649000D03*
X135382000Y-110109000D03*
X137922000Y-112649000D03*
X137922000Y-110109000D03*
X140462000Y-112649000D03*
X140462000Y-110109000D03*
X143002000Y-112649000D03*
X143002000Y-110109000D03*
X145542000Y-112649000D03*
X145542000Y-110109000D03*
X148082000Y-112649000D03*
X148082000Y-110109000D03*
X150622000Y-112649000D03*
X150622000Y-110109000D03*
X153162000Y-112649000D03*
X153162000Y-110109000D03*
X155702000Y-112649000D03*
X155702000Y-110109000D03*
X158242000Y-112649000D03*
X158242000Y-110109000D03*
X160782000Y-112649000D03*
X160782000Y-110109000D03*
X163322000Y-112649000D03*
X163322000Y-110109000D03*
X165862000Y-112649000D03*
X165862000Y-110109000D03*
X168402000Y-112649000D03*
X168402000Y-110109000D03*
X170942000Y-112649000D03*
X170942000Y-110109000D03*
X173482000Y-112649000D03*
X173482000Y-110109000D03*
X115062000Y-107569000D03*
X115062000Y-105029000D03*
X117602000Y-107569000D03*
X117602000Y-105029000D03*
X120142000Y-107569000D03*
X120142000Y-105029000D03*
X122682000Y-107569000D03*
X122682000Y-105029000D03*
X125222000Y-107569000D03*
X125222000Y-105029000D03*
X127762000Y-107569000D03*
X127762000Y-105029000D03*
X130302000Y-107569000D03*
X130302000Y-105029000D03*
X132842000Y-107569000D03*
X132842000Y-105029000D03*
X135382000Y-107569000D03*
X135382000Y-105029000D03*
X137922000Y-107569000D03*
X137922000Y-105029000D03*
X140462000Y-107569000D03*
X140462000Y-105029000D03*
X143002000Y-107569000D03*
X143002000Y-105029000D03*
X145542000Y-107569000D03*
X145542000Y-105029000D03*
X148082000Y-107569000D03*
X148082000Y-105029000D03*
X150622000Y-107569000D03*
X150622000Y-105029000D03*
X153162000Y-107569000D03*
X153162000Y-105029000D03*
X155702000Y-107569000D03*
X155702000Y-105029000D03*
X158242000Y-107569000D03*
X158242000Y-105029000D03*
X160782000Y-107569000D03*
X160782000Y-105029000D03*
X163322000Y-107569000D03*
X163322000Y-105029000D03*
X165862000Y-107569000D03*
X165862000Y-105029000D03*
X168402000Y-107569000D03*
X168402000Y-105029000D03*
X170942000Y-107569000D03*
X170942000Y-105029000D03*
X173482000Y-107569000D03*
X173482000Y-105029000D03*
X115062000Y-102489000D03*
X115062000Y-99949000D03*
X117602000Y-102489000D03*
X117602000Y-99949000D03*
X120142000Y-102489000D03*
X120142000Y-99949000D03*
X122682000Y-102489000D03*
X122682000Y-99949000D03*
X125222000Y-102489000D03*
X125222000Y-99949000D03*
X127762000Y-102489000D03*
X127762000Y-99949000D03*
X130302000Y-102489000D03*
X130302000Y-99949000D03*
X132842000Y-102489000D03*
X132842000Y-99949000D03*
X135382000Y-102489000D03*
X135382000Y-99949000D03*
X137922000Y-102489000D03*
X137922000Y-99949000D03*
X140462000Y-102489000D03*
X140462000Y-99949000D03*
X143002000Y-102489000D03*
X143002000Y-99949000D03*
X145542000Y-102489000D03*
X145542000Y-99949000D03*
X148082000Y-102489000D03*
X148082000Y-99949000D03*
X150622000Y-102489000D03*
X150622000Y-99949000D03*
X153162000Y-102489000D03*
X153162000Y-99949000D03*
X155702000Y-102489000D03*
X155702000Y-99949000D03*
X158242000Y-102489000D03*
X158242000Y-99949000D03*
X160782000Y-102489000D03*
X160782000Y-99949000D03*
X163322000Y-102489000D03*
X163322000Y-99949000D03*
X165862000Y-102489000D03*
X165862000Y-99949000D03*
X168402000Y-102489000D03*
X168402000Y-99949000D03*
X170942000Y-102489000D03*
X170942000Y-99949000D03*
X173482000Y-102489000D03*
X173482000Y-99949000D03*
X115062000Y-92329000D03*
X115062000Y-89789000D03*
X117602000Y-92329000D03*
X117602000Y-89789000D03*
X120142000Y-92329000D03*
X120142000Y-89789000D03*
X122682000Y-92329000D03*
X122682000Y-89789000D03*
X125222000Y-92329000D03*
X125222000Y-89789000D03*
X127762000Y-92329000D03*
X127762000Y-89789000D03*
X130302000Y-92329000D03*
X130302000Y-89789000D03*
X132842000Y-92329000D03*
X132842000Y-89789000D03*
X135382000Y-92329000D03*
X135382000Y-89789000D03*
X137922000Y-92329000D03*
X137922000Y-89789000D03*
X140462000Y-92329000D03*
X140462000Y-89789000D03*
X143002000Y-92329000D03*
X143002000Y-89789000D03*
X145542000Y-92329000D03*
X145542000Y-89789000D03*
X148082000Y-92329000D03*
X148082000Y-89789000D03*
X150622000Y-92329000D03*
X150622000Y-89789000D03*
X153162000Y-92329000D03*
X153162000Y-89789000D03*
X155702000Y-92329000D03*
X155702000Y-89789000D03*
X158242000Y-92329000D03*
X158242000Y-89789000D03*
X160782000Y-92329000D03*
X160782000Y-89789000D03*
X163322000Y-92329000D03*
X163322000Y-89789000D03*
X165862000Y-92329000D03*
X165862000Y-89789000D03*
X168402000Y-92329000D03*
X168402000Y-89789000D03*
X170942000Y-92329000D03*
X170942000Y-89789000D03*
X173482000Y-92329000D03*
X173482000Y-89789000D03*
X115062000Y-87249000D03*
X115062000Y-84709000D03*
X117602000Y-87249000D03*
X117602000Y-84709000D03*
X120142000Y-87249000D03*
X120142000Y-84709000D03*
X122682000Y-87249000D03*
X122682000Y-84709000D03*
X125222000Y-87249000D03*
X125222000Y-84709000D03*
X127762000Y-87249000D03*
X127762000Y-84709000D03*
X130302000Y-87249000D03*
X130302000Y-84709000D03*
X132842000Y-87249000D03*
X132842000Y-84709000D03*
X135382000Y-87249000D03*
X135382000Y-84709000D03*
X137922000Y-87249000D03*
X137922000Y-84709000D03*
X140462000Y-87249000D03*
X140462000Y-84709000D03*
X143002000Y-87249000D03*
X143002000Y-84709000D03*
X145542000Y-87249000D03*
X145542000Y-84709000D03*
X148082000Y-87249000D03*
X148082000Y-84709000D03*
X150622000Y-87249000D03*
X150622000Y-84709000D03*
X153162000Y-87249000D03*
X153162000Y-84709000D03*
X155702000Y-87249000D03*
X155702000Y-84709000D03*
X158242000Y-87249000D03*
X158242000Y-84709000D03*
X160782000Y-87249000D03*
X160782000Y-84709000D03*
X163322000Y-87249000D03*
X163322000Y-84709000D03*
X165862000Y-87249000D03*
X165862000Y-84709000D03*
X168402000Y-87249000D03*
X168402000Y-84709000D03*
X170942000Y-87249000D03*
X170942000Y-84709000D03*
X173482000Y-87249000D03*
X173482000Y-84709000D03*
X115062000Y-82169000D03*
X117602000Y-82169000D03*
X120142000Y-82169000D03*
X122682000Y-82169000D03*
X125222000Y-82169000D03*
X127762000Y-82169000D03*
X130302000Y-82169000D03*
X132842000Y-82169000D03*
X135382000Y-82169000D03*
X137922000Y-82169000D03*
X140462000Y-82169000D03*
X143002000Y-82169000D03*
X145542000Y-82169000D03*
X148082000Y-82169000D03*
X150622000Y-82169000D03*
X153162000Y-82169000D03*
X155702000Y-82169000D03*
X158242000Y-82169000D03*
X160782000Y-82169000D03*
X163322000Y-82169000D03*
X165862000Y-82169000D03*
X168402000Y-82169000D03*
X170942000Y-82169000D03*
X173482000Y-82169000D03*
D13*
X123190000Y-126619000D03*
D14*
X123190000Y-118999000D03*
D13*
X112522000Y-120269000D03*
D14*
X112522000Y-127889000D03*
D13*
X123698000Y-116713000D03*
D14*
X116078000Y-116713000D03*
D15*
X177038000Y-90805000D03*
X126238000Y-75565000D03*
X177038000Y-118745000D03*
D12*
X115062000Y-97409000D03*
X115062000Y-94869000D03*
X117602000Y-97409000D03*
X117602000Y-94869000D03*
X120142000Y-97409000D03*
X120142000Y-94869000D03*
X122682000Y-97409000D03*
X122682000Y-94869000D03*
X125222000Y-97409000D03*
X125222000Y-94869000D03*
X127762000Y-97409000D03*
X127762000Y-94869000D03*
X130302000Y-97409000D03*
X130302000Y-94869000D03*
X132842000Y-97409000D03*
X132842000Y-94869000D03*
X135382000Y-97409000D03*
X135382000Y-94869000D03*
X137922000Y-97409000D03*
X137922000Y-94869000D03*
X140462000Y-97409000D03*
X140462000Y-94869000D03*
X143002000Y-97409000D03*
X143002000Y-94869000D03*
X145542000Y-97409000D03*
X145542000Y-94869000D03*
X148082000Y-97409000D03*
X148082000Y-94869000D03*
X150622000Y-97409000D03*
X150622000Y-94869000D03*
X153162000Y-97409000D03*
X153162000Y-94869000D03*
X155702000Y-97409000D03*
X155702000Y-94869000D03*
X158242000Y-97409000D03*
X158242000Y-94869000D03*
X160782000Y-97409000D03*
X160782000Y-94869000D03*
X163322000Y-97409000D03*
X163322000Y-94869000D03*
X165862000Y-97409000D03*
X165862000Y-94869000D03*
X168402000Y-97409000D03*
X168402000Y-94869000D03*
X170942000Y-97409000D03*
X170942000Y-94869000D03*
X173482000Y-97409000D03*
X173482000Y-94869000D03*
X156718000Y-72517000D03*
X159258000Y-72517000D03*
X161798000Y-72517000D03*
X164338000Y-72517000D03*
X166878000Y-72517000D03*
X169418000Y-72517000D03*
X171958000Y-72517000D03*
X174498000Y-72517000D03*
X156718000Y-78359000D03*
X159258000Y-78359000D03*
X161798000Y-78359000D03*
X164338000Y-78359000D03*
X166878000Y-78359000D03*
X169418000Y-78359000D03*
X171958000Y-78359000D03*
X174498000Y-78359000D03*
X138938000Y-126619000D03*
X141478000Y-126619000D03*
X144018000Y-126619000D03*
X146558000Y-126619000D03*
X149098000Y-126619000D03*
X151638000Y-126619000D03*
X154178000Y-126619000D03*
X156718000Y-126619000D03*
X138938000Y-121031000D03*
X141478000Y-121031000D03*
X144018000Y-121031000D03*
X146558000Y-121031000D03*
X149098000Y-121031000D03*
X151638000Y-121031000D03*
X154178000Y-121031000D03*
X156718000Y-121031000D03*
D11*
X156718000Y-75565000D03*
X159258000Y-75565000D03*
X161798000Y-75565000D03*
X164338000Y-75565000D03*
X166878000Y-75565000D03*
X169418000Y-75565000D03*
X171958000Y-75565000D03*
X174498000Y-75565000D03*
X138938000Y-123825000D03*
X141478000Y-123825000D03*
X144018000Y-123825000D03*
X146558000Y-123825000D03*
X149098000Y-123825000D03*
X151638000Y-123825000D03*
X154178000Y-123825000D03*
X156718000Y-123825000D03*
D12*
X173736000Y-115443000D03*
X173736000Y-117983000D03*
X171196000Y-115443000D03*
X171196000Y-117983000D03*
X168656000Y-115443000D03*
X168656000Y-117983000D03*
X166116000Y-115443000D03*
X166116000Y-117983000D03*
X163576000Y-115443000D03*
X163576000Y-117983000D03*
X161036000Y-115443000D03*
X161036000Y-117983000D03*
X158496000Y-115443000D03*
X158496000Y-117983000D03*
X155956000Y-115443000D03*
X155956000Y-117983000D03*
X153416000Y-115443000D03*
X153416000Y-117983000D03*
X150876000Y-115443000D03*
X150876000Y-117983000D03*
X148336000Y-115443000D03*
X148336000Y-117983000D03*
X145796000Y-115443000D03*
X145796000Y-117983000D03*
X143256000Y-115443000D03*
X143256000Y-117983000D03*
X140716000Y-115443000D03*
X140716000Y-117983000D03*
X138176000Y-115443000D03*
X138176000Y-117983000D03*
X135636000Y-115443000D03*
X135636000Y-117983000D03*
X133096000Y-115443000D03*
X133096000Y-117983000D03*
X161798000Y-121031000D03*
X164338000Y-121031000D03*
X166878000Y-121031000D03*
X169418000Y-121031000D03*
X171958000Y-121031000D03*
X174498000Y-121031000D03*
X161798000Y-126619000D03*
X164338000Y-126619000D03*
X166878000Y-126619000D03*
X169418000Y-126619000D03*
X171958000Y-126619000D03*
X174498000Y-126619000D03*
D11*
X161798000Y-123825000D03*
X164338000Y-123825000D03*
X166878000Y-123825000D03*
X169418000Y-123825000D03*
X171958000Y-123825000D03*
X174498000Y-123825000D03*
D16*
X118618000Y-126619000D03*
X116078000Y-126619000D03*
X118618000Y-124079000D03*
X116078000Y-124079000D03*
X118618000Y-121539000D03*
X116078000Y-121539000D03*
X118618000Y-118999000D03*
X116078000Y-118999000D03*
D12*
X127250000Y-121750000D03*
X127250000Y-119210000D03*
X129790000Y-121750000D03*
X129790000Y-119210000D03*
D17*
X174498000Y-78867000D02*
X174498000Y-78359000D01*
X174498000Y-71755000D02*
X174498000Y-72517000D01*
D18*
X123190000Y-118999000D02*
X123190000Y-121090000D01*
X145027000Y-119500000D02*
X146558000Y-121031000D01*
X137800000Y-119500000D02*
X145027000Y-119500000D01*
X132000000Y-125300000D02*
X137800000Y-119500000D01*
X127400000Y-125300000D02*
X132000000Y-125300000D01*
X123190000Y-121090000D02*
X127400000Y-125300000D01*
X146558000Y-121031000D02*
X146558000Y-123825000D01*
M02*
