M48
;DRILL file {KiCad 4.0.6} date 08/08/17 09:50:28
;FORMAT={-:-/ absolute / inch / decimal}
FMAT,2
INCH,TZ
T1C0.028
T2C0.040
T3C0.043
T4C0.120
%
G90
G05
M72
T1
X5.3306Y-3.2073
X5.3306Y-3.5073
X5.3306Y-3.7545
X5.3306Y-4.0545
X5.692Y-3.5104
X5.82Y-3.945
X5.992Y-3.5104
X6.12Y-3.945
T2
X5.11Y-2.975
X5.21Y-2.975
X5.31Y-2.975
X5.41Y-2.975
X5.47Y-4.875
X5.51Y-2.975
X5.5613Y-3.7498
X5.5613Y-3.8498
X5.5613Y-3.9498
X5.5613Y-4.0498
X5.57Y-4.875
X5.61Y-2.975
X5.6613Y-3.7498
X5.6613Y-3.8498
X5.6613Y-3.9498
X5.6613Y-4.0498
X5.67Y-4.875
X5.71Y-2.975
X5.77Y-4.875
X5.81Y-2.975
X5.87Y-4.875
X5.91Y-2.975
X5.97Y-4.875
X6.01Y-2.975
X6.07Y-4.875
X6.17Y-2.975
X6.17Y-4.875
X6.27Y-2.975
X6.37Y-2.975
X6.37Y-4.875
X6.47Y-2.975
X6.47Y-4.875
X6.57Y-2.975
X6.57Y-4.875
X6.67Y-2.975
X6.67Y-4.875
X6.77Y-2.975
X6.77Y-4.875
X6.87Y-2.975
X6.87Y-4.875
T3
X5.26Y-4.365
X5.26Y-4.5422
X5.5159Y-4.365
X5.5159Y-4.5422
X6.07Y-4.385
X6.07Y-4.5622
X6.3259Y-4.385
X6.3259Y-4.5622
T4
X4.92Y-4.875
X4.97Y-2.975
X6.97Y-3.575
X6.97Y-4.675
T0
M30
